<?xml version="1.0" encoding="UTF-8" standalone="no"?>
<svg
   xmlns:dc="http://purl.org/dc/elements/1.1/"
   xmlns:cc="http://creativecommons.org/ns#"
   xmlns:rdf="http://www.w3.org/1999/02/22-rdf-syntax-ns#"
   xmlns:svg="http://www.w3.org/2000/svg"
   xmlns="http://www.w3.org/2000/svg"
   xmlns:sodipodi="http://sodipodi.sourceforge.net/DTD/sodipodi-0.dtd"
   xmlns:inkscape="http://www.inkscape.org/namespaces/inkscape"
   version="1.0"
   width="338.79001mm"
   height="190.2mm"
   id="svg11543"
   sodipodi:docname="Slide11.svg"
   inkscape:version="0.92.3 (2405546, 2018-03-11)">
  <metadata
     id="metadata11547">
    <rdf:RDF>
      <cc:Work
         rdf:about="">
        <dc:format>image/svg+xml</dc:format>
        <dc:type
           rdf:resource="http://purl.org/dc/dcmitype/StillImage" />
        <dc:title></dc:title>
      </cc:Work>
    </rdf:RDF>
  </metadata>
  <sodipodi:namedview
     pagecolor="#ffffff"
     bordercolor="#666666"
     borderopacity="1"
     objecttolerance="10"
     gridtolerance="10"
     guidetolerance="10"
     inkscape:pageopacity="0"
     inkscape:pageshadow="2"
     inkscape:window-width="716"
     inkscape:window-height="480"
     id="namedview11545"
     showgrid="false"
     inkscape:zoom="0.22179422"
     inkscape:cx="640.23309"
     inkscape:cy="359.43307"
     inkscape:window-x="0"
     inkscape:window-y="0"
     inkscape:window-maximized="0"
     inkscape:current-layer="svg11543" />
  <defs
     id="defs11439">
    <pattern
       id="EMFhbasepattern"
       patternUnits="userSpaceOnUse"
       width="6"
       height="6"
       x="0"
       y="0" />
  </defs>
  <text
     xml:space="preserve"
     style="font-size:63.937500px;font-style:normal;font-variant:normal;font-weight:400;font-stretch:Normal;line-height:125.000000%;letter-spacing:0px;word-spacing:0px;fill:#000000;fill-opacity:1;stroke:none;font-family:Corbel;text-align:start;text-anchor:start;"
     transform="matrix(1.000000,-0.000000,0.000000,1.000000,409.381187,322.313311)"
     x="0.000000"
     y="0.000000"
     id="text11447"><tspan
       sodipodi:role="line"
       x="0.000000"
       y="0.000000"
       id="tspan11445"><tspan
         dx="0.000000"
         dy="0.000000"
         style="fill:#D9D9D9;font-size:63.937500px;font-style:normal;font-variant:normal;font-weight:400;font-stretch:Normal;font-family:Corbel;"
         id="tspan11443">Justin Chong</tspan></tspan></text>
  <path
     style="fill:#7f7f7f;fill-rule:evenodd;fill-opacity:1;stroke:none;"
     d="  M 356.74379,427.26105   C 356.74379,422.46396 360.62144,418.54634 365.45851,418.54634   L 797.99637,418.54634   C 802.83343,418.54634 806.71108,422.46396 806.71108,427.26105   L 806.71108,462.1599   C 806.71108,466.957 802.83343,470.87462 797.99637,470.87462   L 365.45851,470.87462   C 360.62144,470.87462 356.74379,466.957 356.74379,462.1599   z "
     id="path11449" />
  <path
     style="fill:#d9d9d9;fill-rule:evenodd;fill-opacity:1;stroke:none;"
     d="  M 370.65536,337.87523   C 370.65536,328.48092 378.29073,320.84555 387.68504,320.84555   L 772.01211,320.84555   C 781.4464,320.84555 789.08177,328.48092 789.08177,337.87523   L 789.08177,406.03392   C 789.08177,415.4682 781.4464,423.0636 772.01211,423.0636   L 387.68504,423.0636   C 378.29073,423.0636 370.65536,415.4682 370.65536,406.03392   z "
     id="path11451" />
  <path
     style="fill:#996633;fill-rule:evenodd;fill-opacity:1;stroke:none;"
     d="  M 897.17626,200.6384   C 897.81587,195.12174 895.05754,193.043 891.01999,195.92126   C 886.98243,198.83949 883.14476,205.67535 882.50515,211.192   C 882.14537,214.07026 882.78498,216.18898 884.18413,216.90854   z "
     id="path11453" />
  <path
     style="fill:#663300;fill-rule:evenodd;fill-opacity:1;stroke:none;"
     d="  M 899.73471,200.55845   C 900.17444,191.76378 897.77589,188.00606 894.4579,192.20351   C 891.09994,196.40097 888.0218,206.95457 887.58207,215.74924   C 887.30224,221.54573 888.26166,225.3834 890.06057,225.74319   z "
     id="path11455" />
  <path
     style="fill:#663300;fill-rule:evenodd;fill-opacity:1;stroke:none;"
     d="  M 917.44397,188.52574   C 915.64506,180.33071 918.32344,176.77286 923.40036,180.57056   C 928.43731,184.36826 934.03392,194.12235 935.83283,202.31738   C 936.91217,207.2344 936.43247,210.67232 934.5536,211.59176   z "
     id="path11457" />
  <path
     style="fill:#996633;fill-rule:evenodd;fill-opacity:1;stroke:none;"
     d="  M 918.84313,197.16051   C 916.04482,188.60569 916.84434,184.08843 920.64204,187.04664   C 924.43973,190.04482 929.79649,199.35918 932.63477,207.95397   C 934.59358,213.91036 934.87341,218.14779 933.35433,218.86735   z "
     id="path11459" />
  <path
     style="fill:#fbe5d6;fill-rule:evenodd;fill-opacity:1;stroke:none;"
     d="  M 887.46214,207.39431   C 885.66323,198.31981 891.53967,189.48516 900.61417,187.64627   L 909.36887,185.88734   C 918.44337,184.04846 927.27801,189.96487 929.1169,199.03937   L 931.67535,211.71169   C 933.47426,220.78619 927.59782,229.62084 918.52332,231.45972   L 909.76863,233.21866   C 900.69412,235.05754 891.85948,229.14113 890.02059,220.06663   z "
     id="path11461" />
  <path
     style="fill:#663300;fill-rule:evenodd;fill-opacity:1;stroke:none;"
     d="  M 892.89885,207.2344   C 885.2235,204.63598 881.90551,196.16111 885.46336,188.32586   C 889.0212,180.49061 898.13568,176.29316 905.851,178.89158   C 908.24955,179.73107 910.32829,181.1702 911.88734,183.12901   z "
     id="path11463" />
  <path
     style="fill:#663300;fill-rule:evenodd;fill-opacity:1;stroke:none;"
     d="  M 896.85645,180.53059   C 899.85463,172.97517 908.4894,170.05694 916.12477,174.05451   C 923.76015,178.01211 927.51787,187.32647 924.51969,194.84191   C 923.56027,197.24046 922.00121,199.23925 920.00242,200.67838   z "
     id="path11465" />
  <path
     style="fill:#996633;fill-rule:evenodd;fill-opacity:1;stroke:none;"
     d="  M 910.48819,203.03695   C 902.69291,205.19564 895.17747,200.07874 893.69836,191.60388   C 892.25924,183.12901 897.41611,174.49425 905.25136,172.33555   C 907.72986,171.65597 910.24833,171.69594 912.64688,172.41551   z "
     id="path11467" />
  <path
     style="fill:#996633;fill-rule:evenodd;fill-opacity:1;stroke:none;"
     d="  M 905.33131,187.32647   C 904.01211,178.81163 909.52877,171.57601 917.60388,171.13628   C 925.71896,170.69655 933.35433,177.2126 934.67353,185.72744   C 935.51302,191.28407 933.47426,196.56087 929.31678,199.51908   z "
     id="path11469" />
  <path
     style="fill:#996633;fill-rule:evenodd;fill-opacity:1;stroke:none;"
     d="  M 886.7026,207.27438   C 879.02726,204.67595 875.66929,196.20109 879.26711,188.36584   C 882.82495,180.57056 891.93943,176.33313 899.61478,178.93156   C 902.0533,179.77105 904.13204,181.21018 905.6911,183.16899   z "
     id="path11471" />
  <path
     style="fill:#996633;fill-rule:evenodd;fill-opacity:1;stroke:none;"
     d="  M 879.10721,190.60448   C 878.02786,178.41187 890.10055,168.53786 906.09085,168.53786   C 912.447,168.53786 918.84313,170.13689 924.1599,173.09509   z "
     id="path11473" />
  <path
     style="fill:#fbe5d6;fill-rule:evenodd;fill-opacity:1;stroke:none;"
     d="  M 902.81284,252.04724   C 903.89219,253.64627 903.49243,255.80497 901.93337,256.88431   L 844.24833,296.5003   C 842.68928,297.57965 840.53059,297.17989 839.41127,295.58086   L 831.57601,284.14779   C 830.45669,282.54876 830.85645,280.39007 832.45548,279.31072   L 890.10055,239.69473   C 891.69958,238.61538 893.85827,239.01514 894.93761,240.5742   z "
     id="path11475" />
  <path
     style="fill:#262626;fill-rule:evenodd;fill-opacity:1;stroke:none;"
     d="  M 902.81284,252.04724   C 903.89219,253.64627 903.49243,255.80497 901.93337,256.88431   L 854.44216,289.50454   C 852.8831,290.58389 850.68443,290.18413 849.60509,288.5851   L 841.72986,277.15203   C 840.65051,275.553 841.05027,273.39431 842.6493,272.31496   L 890.10055,239.69473   C 891.69958,238.61538 893.85827,239.01514 894.93761,240.5742   z "
     id="path11477" />
  <path
     style="fill:#663300;fill-rule:evenodd;fill-opacity:1;stroke:none;"
     d="  M 926.15869,365.17868   C 928.67717,365.17868 930.75591,367.21744 930.75591,369.73592   L 930.75591,466.87704   C 930.75591,469.39552 928.67717,471.43428 926.15869,471.43428   L 907.84979,471.43428   C 905.29134,471.43428 903.25257,469.39552 903.25257,466.87704   L 903.25257,369.73592   C 903.25257,367.21744 905.29134,365.17868 907.84979,365.17868   z "
     id="path11479" />
  <path
     style="fill:#262626;fill-rule:evenodd;fill-opacity:1;stroke:none;"
     d="  M 925.75893,365.05875   C 928.27741,365.05875 930.35615,367.13749 930.35615,369.65597   L 930.35615,454.44458   C 930.35615,456.96305 928.27741,459.00182 925.75893,459.00182   L 907.45003,459.00182   C 904.89158,459.00182 902.85282,456.96305 902.85282,454.44458   L 902.85282,369.65597   C 902.85282,367.13749 904.89158,365.05875 907.45003,365.05875   z "
     id="path11481" />
  <path
     style="fill:#663300;fill-rule:evenodd;fill-opacity:1;stroke:none;"
     d="  M 960.17807,358.30285   C 962.6166,357.66323 965.13507,359.18231 965.73471,361.62084   L 989.20048,455.88371   C 989.80012,458.32223 988.28104,460.80073 985.84252,461.44034   L 968.0533,465.83767   C 965.61478,466.43731 963.13628,464.95821 962.49667,462.51969   L 939.07087,368.25681   C 938.47123,365.81829 939.95033,363.29982 942.38886,362.70018   z "
     id="path11483" />
  <path
     style="fill:#262626;fill-rule:evenodd;fill-opacity:1;stroke:none;"
     d="  M 959.93822,358.26287   C 962.37674,357.62326 964.85524,359.14234 965.45488,361.58086   L 985.76257,443.17141   C 986.40218,445.64991 984.8831,448.12841 982.44458,448.72804   L 964.65536,453.16535   C 962.21684,453.76499 959.69836,452.28589 959.09873,449.80739   L 938.79104,368.21684   C 938.1914,365.77832 939.6705,363.29982 942.149,362.66021   z "
     id="path11485" />
  <path
     style="fill:#fbe5d6;fill-rule:evenodd;fill-opacity:1;stroke:none;"
     d="  M 881.4258,250.92792   C 880.26651,244.61175 884.50394,238.53543 890.82011,237.41611   L 936.75227,229.1811   C 943.06844,228.06178 949.14476,232.25924 950.26408,238.61538   L 969.33253,345.03089   C 970.45185,351.34706 966.25439,357.42338 959.89824,358.5427   L 914.00606,366.77771   C 907.64991,367.89703 901.61357,363.69958 900.45427,357.34343   z "
     id="path11487" />
  <path
     style="fill:#f2f2f2;fill-rule:evenodd;fill-opacity:1;stroke:none;"
     d="  M 890.82011,237.41611   L 896.17686,236.45669   L 916.76439,250.808   L 930.83586,230.62023   L 930.39612,230.3404   L 936.75227,229.1811   C 943.06844,228.06178 949.14476,232.25924 950.26408,238.61538   L 969.33253,345.03089   C 970.45185,351.34706 966.25439,357.42338 959.89824,358.5427   L 914.00606,366.77771   C 907.64991,367.89703 901.61357,363.69958 900.45427,357.34343   L 881.4258,250.92792   C 880.26651,244.61175 884.50394,238.53543 890.82011,237.41611   z "
     id="path11489" />
  <path
     style="fill:#ffffff;fill-rule:evenodd;fill-opacity:1;stroke:none;"
     d="  M 913.80618,247.0103   L 918.52332,246.17081   L 939.31072,362.22047   L 934.59358,363.05996   z "
     id="path11491" />
  <path
     style="fill:#262626;fill-rule:evenodd;fill-opacity:1;stroke:none;"
     d="  M 898.45548,346.15021   C 898.01575,343.63174 899.69473,341.23319 902.17323,340.79346   L 961.97698,330.07995   C 964.49546,329.64022 966.894,331.27922 967.33374,333.7977   L 970.57177,351.9467   C 971.01151,354.46517 969.3725,356.86372 966.85403,357.30345   L 907.05027,368.01696   C 904.57177,368.45669 902.17323,366.77771 901.69352,364.29921   z "
     id="path11493" />
  <path
     style="fill:#0d0d0d;fill-rule:evenodd;fill-opacity:1;stroke:none;"
     d="  M 897.81587,340.59358   C 897.65597,339.83404 898.17565,339.15445 898.89522,339.03452   L 964.13568,327.32162   C 964.85524,327.2017 965.53483,327.68141 965.69473,328.44094   L 966.61417,333.71775   C 966.77408,334.47729 966.29437,335.15687 965.53483,335.2768   L 900.33434,346.9897   C 899.5748,347.10963 898.89522,346.62992 898.77529,345.87038   z "
     id="path11495" />
  <path
     style="fill:#bf9000;fill-rule:evenodd;fill-opacity:1;stroke:none;"
     d="  M 924.39976,335.83646   C 924.27983,335.07692 924.75954,334.39733 925.51908,334.23743   L 937.51181,332.11872   C 938.23137,331.95881 938.95094,332.4785 939.07087,333.19806   L 940.03028,338.51484   C 940.15021,339.2344 939.6705,339.91399 938.95094,340.07389   L 926.91823,342.19261   C 926.19867,342.35251 925.4791,341.8728 925.35918,341.11326   z "
     id="path11497" />
  <path
     style="fill:none;stroke:#ffd966;stroke-width:1.3192005px;stroke-linecap:butt;stroke-linejoin:miter;stroke-miterlimit:8;stroke-dasharray:none;stroke-opacity:1;"
     d="  M 924.39976,335.83646   C 924.27983,335.07692 924.75954,334.39733 925.51908,334.23743   L 937.51181,332.11872   C 938.23137,331.95881 938.95094,332.4785 939.07087,333.19806   L 940.03028,338.51484   C 940.15021,339.2344 939.6705,339.91399 938.95094,340.07389   L 926.91823,342.19261   C 926.19867,342.35251 925.4791,341.8728 925.35918,341.11326   z "
     id="path11499" />
  <path
     style="fill:#262626;fill-rule:evenodd;fill-opacity:1;stroke:none;"
     d="  M 935.91278,229.34101   L 936.75227,229.1811   C 943.06844,228.06178 949.14476,232.25924 950.26408,238.61538   L 969.33253,345.03089   L 969.29255,346.78982   L 969.29255,346.78982   L 973.76984,359.82193   C 969.41248,361.30103 965.05512,362.82011 960.69776,364.29921   C 958.89885,364.93882 957.01999,364.77892 955.42096,363.97941   L 954.06178,362.94004   L 953.90188,363.01999   L 949.54452,360.62144   L 949.50454,360.42156   L 949.02483,360.50151   L 949.38462,360.26166   L 949.38462,360.14173   L 949.06481,358.94246   L 950.0642,357.10357   L 950.10418,356.86372   L 930.67595,248.28952   L 931.99515,245.851   C 934.71351,242.13325 936.07268,237.81587 936.19261,233.49849   z  M 890.82011,237.41611   L 891.77953,237.25621   L 892.53907,240.13446   C 894.05815,244.17202 896.7765,247.88976 900.5742,250.64809   L 904.01211,253.84615   L 923.32041,361.66081   L 923.56027,362.02059   L 924.95942,363.25984   L 925.03937,364.37916   L 925.19927,364.57904   L 925.63901,364.69897   L 925.07935,364.77892   L 925.07935,365.01878   L 921.84131,368.73652   L 921.08177,368.7765   L 920.12235,370.29558   C 918.8831,371.5748 917.20412,372.41429 915.28528,372.45427   C 910.68807,372.53422 906.05088,372.65415 901.45366,372.77408   L 901.13386,359.02241   L 900.45427,357.34343   L 881.4258,250.92792   C 880.26651,244.61175 884.50394,238.53543 890.82011,237.41611   z "
     id="path11501" />
  <path
     style="fill:#8497b0;fill-rule:evenodd;fill-opacity:1;stroke:none;"
     d="  M 912.48698,249.36887   L 920.3622,247.96972   C 921.44155,247.76984 922.48092,248.4894 922.6808,249.56875   L 932.51484,304.57541   C 932.63477,305.09509 932.51484,305.65475 932.19503,306.05451   L 931.99515,306.17444   L 931.87523,306.81405   L 928.47729,311.6911   C 927.99758,312.37068 927.07813,312.53059 926.43852,312.05088   L 921.56148,308.65294   C 921.2017,308.45306 921.00182,308.09328 920.92187,307.69352   L 921.04179,307.21381   L 920.72199,306.69412   L 910.84797,251.68746   C 910.64809,250.60812 911.36766,249.56875 912.48698,249.36887   z "
     id="path11503" />
  <path
     style="fill:#8497b0;fill-rule:evenodd;fill-opacity:1;stroke:none;"
     d="  M 919.80254,244.13204   L 923.36039,246.61054   C 924.27983,247.25015 924.51969,248.4894 923.88007,249.40884   L 919.28286,256.00485   C 918.64325,256.88431 917.404,257.12417 916.48455,256.48455   L 909.92853,251.92732   C 909.00909,251.2877 908.80921,250.04846 909.44882,249.12901   L 911.92732,245.53119   L 914.9255,247.64991   C 915.84494,248.28952 917.08419,248.04967 917.7238,247.13022   z "
     id="path11505" />
  <path
     style="fill:#d9d9d9;fill-rule:evenodd;fill-opacity:1;stroke:none;"
     d="  M 898.85524,233.57844   L 915.96487,245.49122   L 927.83767,228.50151   L 931.71532,231.17989   L 917.04422,252.24712   L 896.01696,237.61599   z "
     id="path11507" />
  <path
     style="fill:#fbe5d6;fill-rule:evenodd;fill-opacity:1;stroke:none;"
     d="  M 938.43125,257.64385   C 939.43065,259.28286 938.95094,261.40157 937.31193,262.44094   L 877.90793,299.37856   C 876.26893,300.37795 874.11024,299.85827 873.11084,298.25924   L 865.79528,286.42641   C 864.75591,284.82738 865.27559,282.66869 866.87462,281.66929   L 926.31859,244.73168   C 927.91763,243.69231 930.07632,244.21199 931.07571,245.851   z "
     id="path11509" />
  <path
     style="fill:#262626;fill-rule:evenodd;fill-opacity:1;stroke:none;"
     d="  M 938.43125,257.64385   C 939.43065,259.28286 938.95094,261.40157 937.31193,262.44094   L 886.5427,293.98183   C 884.90369,295.0212 882.78498,294.50151 881.74561,292.86251   L 874.43004,281.06965   C 873.39067,279.43065 873.91036,277.31193 875.54936,276.27256   L 926.31859,244.73168   C 927.91763,243.69231 930.07632,244.21199 931.07571,245.851   z "
     id="path11511" />
  <path
     style="fill:#bfbfbf;fill-rule:evenodd;fill-opacity:1;stroke:none;"
     d="  M 362.66021,345.23077   C 362.66021,336.39612 369.81587,329.24046 378.61054,329.24046   L 758.70018,329.24046   C 767.53483,329.24046 774.69049,336.39612 774.69049,345.23077   L 774.69049,409.11205   C 774.69049,417.9467 767.53483,425.06239 758.70018,425.06239   L 378.61054,425.06239   C 369.81587,425.06239 362.66021,417.9467 362.66021,409.11205   z "
     id="path11513" />
  <path
     style="fill:#000000;fill-rule:evenodd;fill-opacity:1;stroke:none;"
     d="  M 380.76923,358.90248   C 380.76923,354.10539 384.64688,350.18776 389.48395,350.18776   L 747.38704,350.18776   C 752.22411,350.18776 756.10176,354.10539 756.10176,358.90248   L 756.10176,393.76136   C 756.10176,398.59843 752.22411,402.51605 747.38704,402.51605   L 389.48395,402.51605   C 384.64688,402.51605 380.76923,398.59843 380.76923,393.76136   z "
     id="path11515" />
  <path
     style="fill:none;stroke:#f2f2f2;stroke-width:1.3192005px;stroke-linecap:butt;stroke-linejoin:miter;stroke-miterlimit:8;stroke-dasharray:none;stroke-opacity:1;"
     d="  M 380.76923,358.90248   C 380.76923,354.10539 384.64688,350.18776 389.48395,350.18776   L 747.38704,350.18776   C 752.22411,350.18776 756.10176,354.10539 756.10176,358.90248   L 756.10176,393.76136   C 756.10176,398.59843 752.22411,402.51605 747.38704,402.51605   L 389.48395,402.51605   C 384.64688,402.51605 380.76923,398.59843 380.76923,393.76136   z "
     id="path11517" />
  <path
     style="fill:#d9d9d9;fill-rule:evenodd;fill-opacity:1;stroke:none;"
     d="  M 797.07692,325.52271   C 797.07692,322.92429 799.15566,320.84555 801.75409,320.84555   L 820.50273,320.84555   C 823.10115,320.84555 825.21987,322.92429 825.21987,325.52271   L 825.21987,466.1175   C 825.21987,468.71593 823.10115,470.83465 820.50273,470.83465   L 801.75409,470.83465   C 799.15566,470.83465 797.07692,468.71593 797.07692,466.1175   z "
     id="path11519" />
  <path
     style="fill:#bfbfbf;fill-rule:evenodd;fill-opacity:1;stroke:none;"
     d="  M 787.16293,299.09873   C 788.28225,297.13992 790.76075,296.5003 792.71956,297.61962   L 853.80254,332.87826   C 855.72138,333.99758 856.40097,336.47608 855.28165,338.43489   L 847.08661,352.62629   C 845.96729,354.5851 843.48879,355.22471 841.52998,354.10539   L 780.447,318.84676   C 778.52816,317.72744 777.84858,315.20896 778.9679,313.29013   z "
     id="path11521" />
  <path
     style="fill:#ff5050;fill-rule:evenodd;fill-opacity:1;stroke:none;"
     d="  M 813.58692,285.18716   C 814.78619,283.10842 817.42459,282.42883 819.46336,283.58813   L 853.72259,303.41611   C 855.80133,304.57541 856.48092,307.21381 855.32162,309.25257   L 846.72683,324.08359   C 845.56753,326.16233 842.92913,326.84191 840.89037,325.68262   L 806.59116,305.85463   C 804.55239,304.69534 803.83283,302.05694 805.0321,300.01817   z "
     id="path11523" />
  <path
     style="fill:#f2f2f2;fill-rule:evenodd;fill-opacity:1;stroke:none;"
     d="  M 799.07571,296.90006   C 799.27559,296.5003 799.7553,296.38038 800.15506,296.58025   L 851.52392,326.24228   C 851.92368,326.48213 852.04361,326.96184 851.80376,327.3616   L 850.20472,330.11993   C 850.00485,330.51969 849.52514,330.63961 849.12538,330.39976   L 797.75651,300.73773   C 797.35675,300.53786 797.23683,300.05815 797.47668,299.65839   z "
     id="path11525" />
  <path
     style="fill:#404040;fill-rule:evenodd;fill-opacity:1;stroke:none;"
     d="  M 362.64022,363.71956   L 362.64022,373.5536   L 357.74319,375.19261   C 348.149,379.50999 341.41308,389.62386 341.41308,401.43671   C 341.41308,411.25076 346.09025,419.9255 353.20594,425.0424   L 356.7238,427.08116   L 356.7238,437.69473   L 353.56572,436.65536   C 340.69352,430.83889 331.65899,417.26711 331.65899,401.43671   C 331.65899,382.94791 343.95154,367.53725 360.30164,363.97941   z "
     id="path11527" />
  <path
     style="fill:#404040;fill-rule:evenodd;fill-opacity:1;stroke:none;"
     d="  M 362.98001,379.78982   L 362.98001,389.62386   L 358.08298,391.24288   C 348.48879,395.56027 341.75288,405.69412 341.75288,417.48698   C 341.75288,427.32102 346.43004,435.99576 353.54573,441.11266   L 357.0636,443.15142   L 357.0636,453.76499   L 353.88552,452.70563   C 341.01333,446.90915 331.9788,433.31738 331.9788,417.48698   C 331.9788,399.01817 344.27135,383.60751 360.62144,380.02968   z "
     id="path11529" />
  <text
     xml:space="preserve"
     style="font-size:63.937500px;font-style:normal;font-variant:normal;font-weight:400;font-stretch:Normal;line-height:125.000000%;letter-spacing:0px;word-spacing:0px;fill:#000000;fill-opacity:1;stroke:none;font-family:Corbel;text-align:start;text-anchor:start;"
     transform="matrix(1.000000,-0.000000,0.000000,1.000000,406.716357,324.312100)"
     x="0.000000"
     y="0.000000"
     id="text11535"><tspan
       sodipodi:role="line"
       x="0.000000"
       y="0.000000"
       id="tspan11533"><tspan
         dx="0.000000"
         dy="0.000000"
         style="fill:#FFD966;font-size:63.937500px;font-style:normal;font-variant:normal;font-weight:400;font-stretch:Normal;font-family:Corbel;"
         id="tspan11531">Jus</tspan></tspan></text>
  <text
     xml:space="preserve"
     style="font-size:63.937500px;font-style:normal;font-variant:normal;font-weight:400;font-stretch:Normal;line-height:125.000000%;letter-spacing:0px;word-spacing:0px;fill:#000000;fill-opacity:1;stroke:none;font-family:Corbel;text-align:start;text-anchor:start;"
     transform="matrix(1.000000,-0.000000,0.000000,1.000000,489.706060,324.312100)"
     x="0.000000"
     y="0.000000"
     id="text11541"><tspan
       sodipodi:role="line"
       x="0.000000"
       y="0.000000"
       id="tspan11539"><tspan
         dx="0.000000"
         dy="0.000000"
         style="fill:#F2F2F2;font-size:63.937500px;font-style:normal;font-variant:normal;font-weight:400;font-stretch:Normal;font-family:Corbel;"
         id="tspan11537">tin Chong</tspan></tspan></text>
</svg>
