<?xml version="1.0" encoding="UTF-8" standalone="no"?>
<svg
   xmlns:dc="http://purl.org/dc/elements/1.1/"
   xmlns:cc="http://creativecommons.org/ns#"
   xmlns:rdf="http://www.w3.org/1999/02/22-rdf-syntax-ns#"
   xmlns:svg="http://www.w3.org/2000/svg"
   xmlns="http://www.w3.org/2000/svg"
   xmlns:sodipodi="http://sodipodi.sourceforge.net/DTD/sodipodi-0.dtd"
   xmlns:inkscape="http://www.inkscape.org/namespaces/inkscape"
   version="1.0"
   width="338.79001mm"
   height="190.2mm"
   id="svg12197"
   sodipodi:docname="Slide12.svg"
   inkscape:version="0.92.3 (2405546, 2018-03-11)">
  <metadata
     id="metadata12201">
    <rdf:RDF>
      <cc:Work
         rdf:about="">
        <dc:format>image/svg+xml</dc:format>
        <dc:type
           rdf:resource="http://purl.org/dc/dcmitype/StillImage" />
        <dc:title></dc:title>
      </cc:Work>
    </rdf:RDF>
  </metadata>
  <sodipodi:namedview
     pagecolor="#ffffff"
     bordercolor="#666666"
     borderopacity="1"
     objecttolerance="10"
     gridtolerance="10"
     guidetolerance="10"
     inkscape:pageopacity="0"
     inkscape:pageshadow="2"
     inkscape:window-width="716"
     inkscape:window-height="480"
     id="namedview12199"
     showgrid="false"
     inkscape:zoom="0.22179422"
     inkscape:cx="640.23309"
     inkscape:cy="359.43307"
     inkscape:window-x="0"
     inkscape:window-y="0"
     inkscape:window-maximized="0"
     inkscape:current-layer="svg12197" />
  <defs
     id="defs12093">
    <pattern
       id="EMFhbasepattern"
       patternUnits="userSpaceOnUse"
       width="6"
       height="6"
       x="0"
       y="0" />
  </defs>
  <text
     xml:space="preserve"
     style="font-size:63.937500px;font-style:normal;font-variant:normal;font-weight:400;font-stretch:Normal;line-height:125.000000%;letter-spacing:0px;word-spacing:0px;fill:#000000;fill-opacity:1;stroke:none;font-family:Corbel;text-align:start;text-anchor:start;"
     transform="matrix(1.000000,-0.000000,0.000000,1.000000,409.381187,322.313311)"
     x="0.000000"
     y="0.000000"
     id="text12101"><tspan
       sodipodi:role="line"
       x="0.000000"
       y="0.000000"
       id="tspan12099"><tspan
         dx="0.000000"
         dy="0.000000"
         style="fill:#D9D9D9;font-size:63.937500px;font-style:normal;font-variant:normal;font-weight:400;font-stretch:Normal;font-family:Corbel;"
         id="tspan12097">Justin Chong</tspan></tspan></text>
  <path
     style="fill:#7f7f7f;fill-rule:evenodd;fill-opacity:1;stroke:none;"
     d="  M 356.74379,427.26105   C 356.74379,422.46396 360.62144,418.54634 365.45851,418.54634   L 797.99637,418.54634   C 802.83343,418.54634 806.71108,422.46396 806.71108,427.26105   L 806.71108,462.1599   C 806.71108,466.957 802.83343,470.87462 797.99637,470.87462   L 365.45851,470.87462   C 360.62144,470.87462 356.74379,466.957 356.74379,462.1599   z "
     id="path12103" />
  <path
     style="fill:#d9d9d9;fill-rule:evenodd;fill-opacity:1;stroke:none;"
     d="  M 370.65536,337.87523   C 370.65536,328.48092 378.29073,320.84555 387.68504,320.84555   L 772.01211,320.84555   C 781.4464,320.84555 789.08177,328.48092 789.08177,337.87523   L 789.08177,406.03392   C 789.08177,415.4682 781.4464,423.0636 772.01211,423.0636   L 387.68504,423.0636   C 378.29073,423.0636 370.65536,415.4682 370.65536,406.03392   z "
     id="path12105" />
  <path
     style="fill:#996633;fill-rule:evenodd;fill-opacity:1;stroke:none;"
     d="  M 905.89098,199.87886   C 906.69049,194.40218 904.01211,192.20351 899.89461,194.96184   C 895.73713,197.76015 891.69958,204.47608 890.90006,209.95276   C 890.46033,212.83101 890.98001,214.94973 892.37916,215.70927   z "
     id="path12107" />
  <path
     style="fill:#663300;fill-rule:evenodd;fill-opacity:1;stroke:none;"
     d="  M 908.44942,199.87886   C 909.16899,191.08419 906.93035,187.28649 903.45245,191.36402   C 899.93459,195.44155 896.53664,205.87523 895.81708,214.6699   C 895.33737,220.46638 896.17686,224.34403 897.97577,224.74379   z "
     id="path12109" />
  <path
     style="fill:#663300;fill-rule:evenodd;fill-opacity:1;stroke:none;"
     d="  M 926.55845,188.44579   C 925.03937,180.17081 927.7977,176.69291 932.71472,180.65051   C 937.67171,184.64809 942.94852,194.56208 944.4676,202.83707   C 945.38704,207.75409 944.7874,211.192 942.86856,212.0315   z "
     id="path12111" />
  <path
     style="fill:#996633;fill-rule:evenodd;fill-opacity:1;stroke:none;"
     d="  M 927.67777,197.12053   C 925.11932,188.48577 926.07874,183.9685 929.75651,187.04664   C 933.47426,190.16475 938.55118,199.67898 941.10963,208.31375   C 942.86856,214.35009 942.98849,218.58752 941.42944,219.26711   z "
     id="path12113" />
  <path
     style="fill:#fbe5d6;fill-rule:evenodd;fill-opacity:1;stroke:none;"
     d="  M 895.97698,206.31496   C 894.4579,197.20048 900.61417,188.56572 909.72865,187.00666   L 918.56329,185.52756   C 927.67777,184.00848 936.31254,190.16475 937.87159,199.3192   L 939.99031,212.0315   C 941.54936,221.18595 935.35312,229.82071 926.23864,231.37977   L 917.44397,232.85887   C 908.28952,234.37795 899.65475,228.22168 898.0957,219.06723   z "
     id="path12115" />
  <path
     style="fill:#663300;fill-rule:evenodd;fill-opacity:1;stroke:none;"
     d="  M 901.41369,206.35494   C 893.81829,203.47668 890.74016,194.92187 894.57783,187.20654   C 898.41551,179.49122 907.64991,175.57359 915.24531,178.41187   C 917.64385,179.33131 919.68262,180.85039 921.16172,182.84918   z "
     id="path12117" />
  <path
     style="fill:#663300;fill-rule:evenodd;fill-opacity:1;stroke:none;"
     d="  M 906.21078,179.77105   C 909.44882,172.33555 918.16354,169.69715 925.67898,173.89461   C 933.19443,178.09207 936.63234,187.56632 933.39431,195.00182   C 932.39491,197.32041 930.75591,199.27922 928.67717,200.67838   z "
     id="path12119" />
  <path
     style="fill:#996633;fill-rule:evenodd;fill-opacity:1;stroke:none;"
     d="  M 919.12296,202.71714   C 911.24773,204.63598 903.89219,199.23925 902.73289,190.72441   C 901.53362,182.20957 906.97032,173.77468 914.88552,171.85584   C 917.36402,171.25621 919.92247,171.37614 922.24107,172.17565   z "
     id="path12121" />
  <path
     style="fill:#996633;fill-rule:evenodd;fill-opacity:1;stroke:none;"
     d="  M 914.48577,186.84676   C 913.4464,178.29194 919.16293,171.21623 927.27801,171.05633   C 935.3931,170.85645 942.78861,177.65233 943.82798,186.20715   C 944.50757,191.76378 942.3089,196.96063 938.0315,199.83889   z "
     id="path12123" />
  <path
     style="fill:#996633;fill-rule:evenodd;fill-opacity:1;stroke:none;"
     d="  M 895.21744,206.19503   C 887.62205,203.31678 884.54391,194.76196 888.38159,187.04664   C 892.17929,179.33131 901.45366,175.41369 909.04906,178.29194   C 911.44761,179.17141 913.48637,180.69049 914.96548,182.68928   z "
     id="path12125" />
  <path
     style="fill:#996633;fill-rule:evenodd;fill-opacity:1;stroke:none;"
     d="  M 888.14173,189.24531   C 887.46214,177.0527 899.85463,167.57844 915.80497,168.09812   C 922.20109,168.298 928.51726,170.09691 933.75409,173.255   z "
     id="path12127" />
  <path
     style="fill:#fbe5d6;fill-rule:evenodd;fill-opacity:1;stroke:none;"
     d="  M 909.8086,248.68928   C 910.88795,250.28831 910.48819,252.447 908.88916,253.52635   L 851.24409,293.14234   C 849.68504,294.22168 847.48637,293.82193 846.40703,292.26287   L 838.5318,280.78982   C 837.45245,279.23077 837.85221,277.07208 839.45124,275.95276   L 897.09631,236.33677   C 898.69534,235.25742 900.85403,235.65718 901.93337,237.25621   z "
     id="path12129" />
  <path
     style="fill:#262626;fill-rule:evenodd;fill-opacity:1;stroke:none;"
     d="  M 909.8086,248.68928   C 910.88795,250.28831 910.48819,252.447 908.88916,253.52635   L 861.43792,286.14658   C 859.83889,287.22592 857.68019,286.82617 856.60085,285.26711   L 848.72562,273.79406   C 847.64627,272.23501 848.04603,270.07632 849.64506,268.957   L 897.09631,236.33677   C 898.69534,235.25742 900.85403,235.65718 901.93337,237.25621   z "
     id="path12131" />
  <path
     style="fill:#663300;fill-rule:evenodd;fill-opacity:1;stroke:none;"
     d="  M 926.15869,365.17868   C 928.67717,365.17868 930.75591,367.21744 930.75591,369.73592   L 930.75591,466.87704   C 930.75591,469.39552 928.67717,471.43428 926.15869,471.43428   L 907.84979,471.43428   C 905.29134,471.43428 903.25257,469.39552 903.25257,466.87704   L 903.25257,369.73592   C 903.25257,367.21744 905.29134,365.17868 907.84979,365.17868   z "
     id="path12133" />
  <path
     style="fill:#262626;fill-rule:evenodd;fill-opacity:1;stroke:none;"
     d="  M 925.75893,365.05875   C 928.27741,365.05875 930.35615,367.13749 930.35615,369.65597   L 930.35615,454.44458   C 930.35615,456.96305 928.27741,459.00182 925.75893,459.00182   L 907.45003,459.00182   C 904.89158,459.00182 902.85282,456.96305 902.85282,454.44458   L 902.85282,369.65597   C 902.85282,367.13749 904.89158,365.05875 907.45003,365.05875   z "
     id="path12135" />
  <path
     style="fill:#663300;fill-rule:evenodd;fill-opacity:1;stroke:none;"
     d="  M 962.49667,359.22229   C 965.01514,358.86251 967.29376,360.62144 967.65354,363.13992   L 980.80557,459.3616   C 981.16535,461.88007 979.40642,464.15869 976.88795,464.51847   L 958.73895,466.99697   C 956.22047,467.35675 953.94185,465.59782 953.58207,463.07935   L 940.43004,366.85766   C 940.07026,364.33919 941.82919,362.06057 944.34767,361.70079   z "
     id="path12137" />
  <path
     style="fill:#262626;fill-rule:evenodd;fill-opacity:1;stroke:none;"
     d="  M 962.21684,359.14234   C 964.73531,358.82253 967.05391,360.58147 967.41369,363.05996   L 978.80678,446.36947   C 979.12659,448.88795 977.36766,451.20654 974.88916,451.52635   L 956.74016,454.00485   C 954.22168,454.36463 951.90309,452.60569 951.54331,450.08722   L 940.15021,366.77771   C 939.83041,364.29921 941.58934,361.98062 944.06784,361.62084   z "
     id="path12139" />
  <path
     style="fill:#fbe5d6;fill-rule:evenodd;fill-opacity:1;stroke:none;"
     d="  M 889.10115,248.04967   C 888.30164,241.65354 892.8189,235.85706 899.21502,235.05754   L 945.50697,229.30103   C 951.90309,228.50151 957.73955,233.05875 958.49909,239.45488   L 971.81102,346.70987   C 972.61054,353.106 968.0533,358.94246 961.65718,359.74197   L 915.40521,365.45851   C 909.00909,366.25803 903.17262,361.74076 902.37311,355.34464   z "
     id="path12141" />
  <path
     style="fill:#f2f2f2;fill-rule:evenodd;fill-opacity:1;stroke:none;"
     d="  M 899.21502,235.05754   L 904.61175,234.37795   L 924.39976,249.8086   L 939.5106,230.42035   L 939.11084,230.10055   L 945.50697,229.30103   C 951.90309,228.50151 957.73955,233.05875 958.49909,239.45488   L 971.81102,346.70987   C 972.61054,353.106 968.0533,358.94246 961.65718,359.74197   L 915.40521,365.45851   C 909.00909,366.25803 903.17262,361.74076 902.37311,355.34464   L 889.10115,248.04967   C 888.30164,241.65354 892.8189,235.85706 899.21502,235.05754   z "
     id="path12143" />
  <path
     style="fill:#ffffff;fill-rule:evenodd;fill-opacity:1;stroke:none;"
     d="  M 921.64143,245.851   L 926.39855,245.29134   L 940.90975,362.30042   L 936.15263,362.90006   z "
     id="path12145" />
  <path
     style="fill:#262626;fill-rule:evenodd;fill-opacity:1;stroke:none;"
     d="  M 900.97396,344.0315   C 900.65415,341.51302 902.45306,339.19443 904.97153,338.87462   L 965.255,331.39915   C 967.77347,331.07935 970.09207,332.87826 970.41187,335.43671   L 972.69049,353.70563   C 973.0103,356.26408 971.21139,358.5427 968.65294,358.86251   L 908.40945,366.33798   C 905.851,366.65778 903.57238,364.85887 903.25257,362.3404   z "
     id="path12147" />
  <path
     style="fill:#0d0d0d;fill-rule:evenodd;fill-opacity:1;stroke:none;"
     d="  M 900.61417,338.43489   C 900.53422,337.71532 901.05391,337.03574 901.81345,336.95578   L 967.57359,328.80073   C 968.29316,328.72078 968.97274,329.24046 969.0527,329.96002   L 969.73228,335.31678   C 969.81224,336.03634 969.29255,336.71593 968.53301,336.83586   L 902.81284,344.95094   C 902.0533,345.07087 901.37371,344.55118 901.29376,343.79164   z "
     id="path12149" />
  <path
     style="fill:#bf9000;fill-rule:evenodd;fill-opacity:1;stroke:none;"
     d="  M 927.43792,335.1169   C 927.35796,334.39733 927.87765,333.71775 928.63719,333.6378   L 940.74985,332.11872   C 941.46941,332.03876 942.149,332.55845 942.22895,333.27801   L 942.90854,338.63477   C 942.98849,339.39431 942.46881,340.03392 941.70927,340.15385   L 929.63658,341.63295   C 928.87704,341.75288 928.19746,341.19322 928.1175,340.47365   z "
     id="path12151" />
  <path
     style="fill:none;stroke:#ffd966;stroke-width:1.3192005px;stroke-linecap:butt;stroke-linejoin:miter;stroke-miterlimit:8;stroke-dasharray:none;stroke-opacity:1;"
     d="  M 927.43792,335.1169   C 927.35796,334.39733 927.87765,333.71775 928.63719,333.6378   L 940.74985,332.11872   C 941.46941,332.03876 942.149,332.55845 942.22895,333.27801   L 942.90854,338.63477   C 942.98849,339.39431 942.46881,340.03392 941.70927,340.15385   L 929.63658,341.63295   C 928.87704,341.75288 928.19746,341.19322 928.1175,340.47365   z "
     id="path12153" />
  <path
     style="fill:#262626;fill-rule:evenodd;fill-opacity:1;stroke:none;"
     d="  M 944.66747,229.42096   L 945.50697,229.30103   C 951.90309,228.50151 957.73955,233.05875 958.49909,239.45488   L 971.81102,346.70987   L 971.6911,348.50878   L 971.6911,348.50878   L 975.44882,361.74076   C 971.01151,363.01999 966.5742,364.25924 962.13689,365.53846   C 960.298,366.05815 958.41914,365.77832 956.90006,364.93882   L 955.58086,363.8195   L 955.42096,363.85948   L 951.2235,361.26105   L 951.18353,361.0212   L 950.66384,361.10115   L 951.0636,360.8613   L 951.10357,360.74137   L 950.82374,359.5421   L 951.90309,357.78316   L 951.98304,357.54331   L 938.43125,248.08964   L 939.87038,245.6911   C 942.78861,242.13325 944.38764,237.89582 944.74743,233.57844   z  M 899.21502,235.05754   L 900.17444,234.93761   L 900.77408,237.85584   C 902.09328,242.01333 904.57177,245.81102 908.20957,248.76923   L 911.48758,252.16717   L 924.95942,360.8613   L 925.19927,361.26105   L 926.51847,362.58025   L 926.55845,363.6596   L 926.67838,363.89945   L 927.11811,364.01938   L 926.55845,364.09933   L 926.55845,364.29921   L 923.12053,367.85706   L 922.36099,367.85706   L 921.32162,369.33616   C 920.00242,370.53543 918.28346,371.255 916.36463,371.21502   C 911.76741,371.05512 907.13022,370.93519 902.53301,370.77529   L 902.97274,357.02362   L 902.37311,355.34464   L 889.10115,248.04967   C 888.30164,241.65354 892.8189,235.85706 899.21502,235.05754   z "
     id="path12155" />
  <path
     style="fill:#8497b0;fill-rule:evenodd;fill-opacity:1;stroke:none;"
     d="  M 920.2023,248.16959   L 928.15748,247.1702   C 929.23683,247.0103 930.23622,247.80981 930.35615,248.88916   L 937.23198,304.33555   C 937.31193,304.89522 937.15203,305.4149 936.83222,305.81466   L 936.63234,305.93459   L 936.47244,306.5742   L 932.83465,311.25136   C 932.31496,311.89098 931.39552,312.0109 930.75591,311.49122   L 926.07874,307.85342   C 925.71896,307.61357 925.55906,307.25379 925.51908,306.85403   L 925.63901,306.37432   L 925.3192,305.81466   L 918.44337,250.36826   C 918.32344,249.28892 919.08298,248.28952 920.2023,248.16959   z "
     id="path12157" />
  <path
     style="fill:#8497b0;fill-rule:evenodd;fill-opacity:1;stroke:none;"
     d="  M 927.7977,243.33253   L 931.19564,246.0109   C 932.07511,246.69049 932.23501,247.92974 931.55542,248.80921   L 926.6384,255.12538   C 925.95881,256.00485 924.67959,256.16475 923.8401,255.48516   L 917.52392,250.56814   C 916.64446,249.88855 916.48455,248.60933 917.16414,247.72986   L 919.84252,244.33192   L 922.72078,246.57056   C 923.60024,247.25015 924.83949,247.09025 925.51908,246.21078   z "
     id="path12159" />
  <path
     style="fill:#d9d9d9;fill-rule:evenodd;fill-opacity:1;stroke:none;"
     d="  M 907.41005,231.6596   L 923.88007,244.49182   L 936.63234,228.14173   L 940.39007,231.01999   L 924.59964,251.2877   L 904.3719,235.53725   z "
     id="path12161" />
  <path
     style="fill:#fbe5d6;fill-rule:evenodd;fill-opacity:1;stroke:none;"
     d="  M 948.70503,253.40642   C 949.70442,255.00545 949.18474,257.16414 947.58571,258.16354   L 888.18171,295.10115   C 886.5427,296.14052 884.38401,295.62084 883.38462,293.98183   L 876.02907,282.18898   C 875.02968,280.54997 875.54936,278.43125 877.14839,277.39188   L 936.55239,240.45427   C 938.1914,239.45488 940.35009,239.97456 941.34949,241.57359   z "
     id="path12163" />
  <path
     style="fill:#262626;fill-rule:evenodd;fill-opacity:1;stroke:none;"
     d="  M 948.70503,253.40642   C 949.70442,255.00545 949.18474,257.16414 947.58571,258.16354   L 896.81647,289.7444   C 895.17747,290.74379 893.01878,290.26408 892.01938,288.62508   L 884.66384,276.83222   C 883.66445,275.19322 884.18413,273.03452 885.78316,272.03513   L 936.55239,240.45427   C 938.1914,239.45488 940.35009,239.97456 941.34949,241.57359   z "
     id="path12165" />
  <path
     style="fill:#bfbfbf;fill-rule:evenodd;fill-opacity:1;stroke:none;"
     d="  M 362.66021,345.23077   C 362.66021,336.39612 369.81587,329.24046 378.61054,329.24046   L 758.70018,329.24046   C 767.53483,329.24046 774.69049,336.39612 774.69049,345.23077   L 774.69049,409.11205   C 774.69049,417.9467 767.53483,425.06239 758.70018,425.06239   L 378.61054,425.06239   C 369.81587,425.06239 362.66021,417.9467 362.66021,409.11205   z "
     id="path12167" />
  <path
     style="fill:#000000;fill-rule:evenodd;fill-opacity:1;stroke:none;"
     d="  M 380.76923,358.90248   C 380.76923,354.10539 384.64688,350.18776 389.48395,350.18776   L 747.38704,350.18776   C 752.22411,350.18776 756.10176,354.10539 756.10176,358.90248   L 756.10176,393.76136   C 756.10176,398.59843 752.22411,402.51605 747.38704,402.51605   L 389.48395,402.51605   C 384.64688,402.51605 380.76923,398.59843 380.76923,393.76136   z "
     id="path12169" />
  <path
     style="fill:none;stroke:#f2f2f2;stroke-width:1.3192005px;stroke-linecap:butt;stroke-linejoin:miter;stroke-miterlimit:8;stroke-dasharray:none;stroke-opacity:1;"
     d="  M 380.76923,358.90248   C 380.76923,354.10539 384.64688,350.18776 389.48395,350.18776   L 747.38704,350.18776   C 752.22411,350.18776 756.10176,354.10539 756.10176,358.90248   L 756.10176,393.76136   C 756.10176,398.59843 752.22411,402.51605 747.38704,402.51605   L 389.48395,402.51605   C 384.64688,402.51605 380.76923,398.59843 380.76923,393.76136   z "
     id="path12171" />
  <path
     style="fill:#d9d9d9;fill-rule:evenodd;fill-opacity:1;stroke:none;"
     d="  M 797.07692,325.52271   C 797.07692,322.92429 799.15566,320.84555 801.75409,320.84555   L 820.50273,320.84555   C 823.10115,320.84555 825.21987,322.92429 825.21987,325.52271   L 825.21987,466.1175   C 825.21987,468.71593 823.10115,470.83465 820.50273,470.83465   L 801.75409,470.83465   C 799.15566,470.83465 797.07692,468.71593 797.07692,466.1175   z "
     id="path12173" />
  <path
     style="fill:#bfbfbf;fill-rule:evenodd;fill-opacity:1;stroke:none;"
     d="  M 787.16293,299.09873   C 788.28225,297.13992 790.76075,296.5003 792.71956,297.61962   L 853.80254,332.87826   C 855.72138,333.99758 856.40097,336.47608 855.28165,338.43489   L 847.08661,352.62629   C 845.96729,354.5851 843.48879,355.22471 841.52998,354.10539   L 780.447,318.84676   C 778.52816,317.72744 777.84858,315.20896 778.9679,313.29013   z "
     id="path12175" />
  <path
     style="fill:#ff5050;fill-rule:evenodd;fill-opacity:1;stroke:none;"
     d="  M 813.58692,285.18716   C 814.78619,283.10842 817.42459,282.42883 819.46336,283.58813   L 853.72259,303.41611   C 855.80133,304.57541 856.48092,307.21381 855.32162,309.25257   L 846.72683,324.08359   C 845.56753,326.16233 842.92913,326.84191 840.89037,325.68262   L 806.59116,305.85463   C 804.55239,304.69534 803.83283,302.05694 805.0321,300.01817   z "
     id="path12177" />
  <path
     style="fill:#f2f2f2;fill-rule:evenodd;fill-opacity:1;stroke:none;"
     d="  M 799.07571,296.90006   C 799.27559,296.5003 799.7553,296.38038 800.15506,296.58025   L 851.52392,326.24228   C 851.92368,326.48213 852.04361,326.96184 851.80376,327.3616   L 850.20472,330.11993   C 850.00485,330.51969 849.52514,330.63961 849.12538,330.39976   L 797.75651,300.73773   C 797.35675,300.53786 797.23683,300.05815 797.47668,299.65839   z "
     id="path12179" />
  <path
     style="fill:#404040;fill-rule:evenodd;fill-opacity:1;stroke:none;"
     d="  M 362.64022,363.71956   L 362.64022,373.5536   L 357.74319,375.19261   C 348.149,379.50999 341.41308,389.62386 341.41308,401.43671   C 341.41308,411.25076 346.09025,419.9255 353.20594,425.0424   L 356.7238,427.08116   L 356.7238,437.69473   L 353.56572,436.65536   C 340.69352,430.83889 331.65899,417.26711 331.65899,401.43671   C 331.65899,382.94791 343.95154,367.53725 360.30164,363.97941   z "
     id="path12181" />
  <path
     style="fill:#404040;fill-rule:evenodd;fill-opacity:1;stroke:none;"
     d="  M 362.98001,379.78982   L 362.98001,389.62386   L 358.08298,391.24288   C 348.48879,395.56027 341.75288,405.69412 341.75288,417.48698   C 341.75288,427.32102 346.43004,435.99576 353.54573,441.11266   L 357.0636,443.15142   L 357.0636,453.76499   L 353.88552,452.70563   C 341.01333,446.90915 331.9788,433.31738 331.9788,417.48698   C 331.9788,399.01817 344.27135,383.60751 360.62144,380.02968   z "
     id="path12183" />
  <text
     xml:space="preserve"
     style="font-size:63.937500px;font-style:normal;font-variant:normal;font-weight:400;font-stretch:Normal;line-height:125.000000%;letter-spacing:0px;word-spacing:0px;fill:#000000;fill-opacity:1;stroke:none;font-family:Corbel;text-align:start;text-anchor:start;"
     transform="matrix(1.000000,-0.000000,0.000000,1.000000,406.716357,324.312100)"
     x="0.000000"
     y="0.000000"
     id="text12189"><tspan
       sodipodi:role="line"
       x="0.000000"
       y="0.000000"
       id="tspan12187"><tspan
         dx="0.000000"
         dy="0.000000"
         style="fill:#FFD966;font-size:63.937500px;font-style:normal;font-variant:normal;font-weight:400;font-stretch:Normal;font-family:Corbel;"
         id="tspan12185">Just</tspan></tspan></text>
  <text
     xml:space="preserve"
     style="font-size:63.937500px;font-style:normal;font-variant:normal;font-weight:400;font-stretch:Normal;line-height:125.000000%;letter-spacing:0px;word-spacing:0px;fill:#000000;fill-opacity:1;stroke:none;font-family:Corbel;text-align:start;text-anchor:start;"
     transform="matrix(1.000000,-0.000000,0.000000,1.000000,511.932589,324.312100)"
     x="0.000000"
     y="0.000000"
     id="text12195"><tspan
       sodipodi:role="line"
       x="0.000000"
       y="0.000000"
       id="tspan12193"><tspan
         dx="0.000000"
         dy="0.000000"
         style="fill:#F2F2F2;font-size:63.937500px;font-style:normal;font-variant:normal;font-weight:400;font-stretch:Normal;font-family:Corbel;"
         id="tspan12191">in Chong</tspan></tspan></text>
</svg>
