<?xml version="1.0" encoding="UTF-8" standalone="no"?>
<svg
   xmlns:dc="http://purl.org/dc/elements/1.1/"
   xmlns:cc="http://creativecommons.org/ns#"
   xmlns:rdf="http://www.w3.org/1999/02/22-rdf-syntax-ns#"
   xmlns:svg="http://www.w3.org/2000/svg"
   xmlns="http://www.w3.org/2000/svg"
   xmlns:sodipodi="http://sodipodi.sourceforge.net/DTD/sodipodi-0.dtd"
   xmlns:inkscape="http://www.inkscape.org/namespaces/inkscape"
   version="1.0"
   width="338.79001mm"
   height="190.2mm"
   id="svg5693"
   sodipodi:docname="Slide2.svg"
   inkscape:version="0.92.3 (2405546, 2018-03-11)">
  <metadata
     id="metadata5697">
    <rdf:RDF>
      <cc:Work
         rdf:about="">
        <dc:format>image/svg+xml</dc:format>
        <dc:type
           rdf:resource="http://purl.org/dc/dcmitype/StillImage" />
        <dc:title></dc:title>
      </cc:Work>
    </rdf:RDF>
  </metadata>
  <sodipodi:namedview
     pagecolor="#ffffff"
     bordercolor="#666666"
     borderopacity="1"
     objecttolerance="10"
     gridtolerance="10"
     guidetolerance="10"
     inkscape:pageopacity="0"
     inkscape:pageshadow="2"
     inkscape:window-width="2560"
     inkscape:window-height="1377"
     id="namedview5695"
     showgrid="false"
     inkscape:zoom="1.2546576"
     inkscape:cx="944.80277"
     inkscape:cy="578.22877"
     inkscape:window-x="-8"
     inkscape:window-y="-8"
     inkscape:window-maximized="1"
     inkscape:current-layer="svg5693" />
  <defs
     id="defs5595">
    <pattern
       id="EMFhbasepattern"
       patternUnits="userSpaceOnUse"
       width="6"
       height="6"
       x="0"
       y="0" />
  </defs>
  <text
     xml:space="preserve"
     style="font-size:63.937500px;font-style:normal;font-variant:normal;font-weight:400;font-stretch:Normal;line-height:125.000000%;letter-spacing:0px;word-spacing:0px;fill:#000000;fill-opacity:1;stroke:none;font-family:Corbel;text-align:start;text-anchor:start;"
     transform="matrix(1.000000,-0.000000,0.000000,1.000000,409.381187,322.313311)"
     x="0.000000"
     y="0.000000"
     id="text5603"><tspan
       sodipodi:role="line"
       x="0.000000"
       y="0.000000"
       id="tspan5601"><tspan
         dx="0.000000"
         dy="0.000000"
         style="fill:#D9D9D9;font-size:63.937500px;font-style:normal;font-variant:normal;font-weight:400;font-stretch:Normal;font-family:Corbel;"
         id="tspan5599">Justin Chong</tspan></tspan></text>
  <path
     style="fill:#7f7f7f;fill-rule:evenodd;fill-opacity:1;stroke:none;"
     d="  M 356.74379,427.26105   C 356.74379,422.46396 360.62144,418.54634 365.45851,418.54634   L 797.99637,418.54634   C 802.83343,418.54634 806.71108,422.46396 806.71108,427.26105   L 806.71108,462.1599   C 806.71108,466.957 802.83343,470.87462 797.99637,470.87462   L 365.45851,470.87462   C 360.62144,470.87462 356.74379,466.957 356.74379,462.1599   z "
     id="path5605" />
  <path
     style="fill:#d9d9d9;fill-rule:evenodd;fill-opacity:1;stroke:none;"
     d="  M 370.65536,337.87523   C 370.65536,328.48092 378.29073,320.84555 387.68504,320.84555   L 772.01211,320.84555   C 781.4464,320.84555 789.08177,328.48092 789.08177,337.87523   L 789.08177,406.03392   C 789.08177,415.4682 781.4464,423.0636 772.01211,423.0636   L 387.68504,423.0636   C 378.29073,423.0636 370.65536,415.4682 370.65536,406.03392   z "
     id="path5607" />
  <path
     style="fill:#996633;fill-rule:evenodd;fill-opacity:1;stroke:none;"
     d="  M 913.20654,197.80012   C 914.32586,192.40339 911.80739,190.04482 907.49001,192.60327   C 903.2126,195.12174 898.77529,201.55784 897.61599,206.99455   C 897.01635,209.83283 897.41611,211.99152 898.77529,212.83101   z "
     id="path5609" />
  <path
     style="fill:#663300;fill-rule:evenodd;fill-opacity:1;stroke:none;"
     d="  M 915.76499,197.96002   C 917.00424,189.24531 914.96548,185.32768 911.24773,189.20533   C 907.52998,193.08298 903.5324,203.2768 902.29316,211.99152   C 901.45366,217.74803 902.0533,221.66566 903.81224,222.18534   z "
     id="path5611" />
  <path
     style="fill:#663300;fill-rule:evenodd;fill-opacity:1;stroke:none;"
     d="  M 934.51363,187.64627   C 933.47426,179.29134 936.43247,176.01333 941.14961,180.25076   C 945.82677,184.52816 950.50394,194.72199 951.54331,203.07692   C 952.14294,208.03392 951.34343,211.43186 949.42459,212.15142   z "
     id="path5613" />
  <path
     style="fill:#996633;fill-rule:evenodd;fill-opacity:1;stroke:none;"
     d="  M 935.11326,196.36099   C 933.0745,187.6063 934.31375,183.16899 937.79164,186.447   C 941.30951,189.76499 945.82677,199.55906 947.82556,208.35373   C 949.26469,214.47002 949.14476,218.70745 947.54573,219.30709   z "
     id="path5615" />
  <path
     style="fill:#fbe5d6;fill-rule:evenodd;fill-opacity:1;stroke:none;"
     d="  M 902.93277,203.67656   C 901.93337,194.48213 908.60933,186.20715 917.80376,185.20775   L 926.67838,184.28831   C 935.91278,183.28892 944.18776,189.96487 945.14718,199.1593   L 946.54634,212.0315   C 947.50575,221.22592 940.8298,229.50091 931.63537,230.46033   L 922.76075,231.41975   C 913.56632,232.41914 905.29134,225.74319 904.29194,216.54876   z "
     id="path5617" />
  <path
     style="fill:#663300;fill-rule:evenodd;fill-opacity:1;stroke:none;"
     d="  M 908.3295,203.99637   C 900.93398,200.71835 898.37553,191.96366 902.65294,184.48819   C 906.93035,177.0527 916.4046,173.65475 923.8401,176.97274   C 926.15869,178.01211 928.1175,179.65112 929.47668,181.72986   z "
     id="path5619" />
  <path
     style="fill:#663300;fill-rule:evenodd;fill-opacity:1;stroke:none;"
     d="  M 914.72562,177.77226   C 918.40339,170.53664 927.27801,168.4579 934.51363,173.09509   C 941.74924,177.73228 944.6275,187.36644 940.94973,194.60206   C 939.79043,196.88068 938.07147,198.71956 935.91278,199.99879   z "
     id="path5621" />
  <path
     style="fill:#996633;fill-rule:evenodd;fill-opacity:1;stroke:none;"
     d="  M 926.23864,201.43792   C 918.24349,202.87704 911.24773,197.08056 910.56814,188.52574   C 909.92853,179.93095 915.84494,171.81587 923.8401,170.37674   C 926.35857,169.93701 928.87704,170.21684 931.19564,171.13628   z "
     id="path5623" />
  <path
     style="fill:#996633;fill-rule:evenodd;fill-opacity:1;stroke:none;"
     d="  M 922.56087,185.32768   C 922.00121,176.73289 928.15748,170.01696 936.27256,170.33677   C 944.34767,170.6166 951.3834,177.85221 951.90309,186.447   C 952.26287,192.04361 949.7444,197.08056 945.30709,199.67898   z "
     id="path5625" />
  <path
     style="fill:#996633;fill-rule:evenodd;fill-opacity:1;stroke:none;"
     d="  M 902.17323,203.51666   C 894.73773,200.19867 892.21926,191.44397 896.49667,183.9685   C 900.77408,176.53301 910.24833,173.13507 917.64385,176.45306   C 919.96245,177.49243 921.92126,179.13144 923.28044,181.21018   z "
     id="path5627" />
  <path
     style="fill:#996633;fill-rule:evenodd;fill-opacity:1;stroke:none;"
     d="  M 896.13689,186.16717   C 896.13689,173.93459 909.08904,165.21987 924.99939,166.69897   C 931.39552,167.25863 937.55179,169.4573 942.58873,172.89522   z "
     id="path5629" />
  <path
     style="fill:#fbe5d6;fill-rule:evenodd;fill-opacity:1;stroke:none;"
     d="  M 910.32829,248.68928   C 911.20775,250.40824 910.56814,252.48698 908.84918,253.40642   L 846.80678,285.70684   C 845.08783,286.58631 843.00909,285.90672 842.12962,284.22774   L 835.69352,271.9152   C 834.81405,270.19624 835.45366,268.07753 837.17262,267.19806   L 899.21502,234.89764   C 900.93398,234.01817 903.01272,234.69776 903.89219,236.37674   z "
     id="path5631" />
  <path
     style="fill:#262626;fill-rule:evenodd;fill-opacity:1;stroke:none;"
     d="  M 910.32829,248.68928   C 911.20775,250.40824 910.56814,252.48698 908.84918,253.40642   L 857.76015,279.99031   C 856.04119,280.86978 853.96245,280.23016 853.08298,278.51121   L 846.64688,266.19867   C 845.76741,264.47971 846.447,262.40097 848.12598,261.5215   L 899.21502,234.89764   C 900.93398,234.01817 903.01272,234.69776 903.89219,236.37674   z "
     id="path5633" />
  <path
     style="fill:#663300;fill-rule:evenodd;fill-opacity:1;stroke:none;"
     d="  M 926.15869,365.17868   C 928.67717,365.17868 930.75591,367.21744 930.75591,369.73592   L 930.75591,466.87704   C 930.75591,469.39552 928.67717,471.43428 926.15869,471.43428   L 907.84979,471.43428   C 905.29134,471.43428 903.25257,469.39552 903.25257,466.87704   L 903.25257,369.73592   C 903.25257,367.21744 905.29134,365.17868 907.84979,365.17868   z "
     id="path5635" />
  <path
     style="fill:#262626;fill-rule:evenodd;fill-opacity:1;stroke:none;"
     d="  M 925.75893,365.05875   C 928.27741,365.05875 930.35615,367.13749 930.35615,369.65597   L 930.35615,454.44458   C 930.35615,456.96305 928.27741,459.00182 925.75893,459.00182   L 907.45003,459.00182   C 904.89158,459.00182 902.85282,456.96305 902.85282,454.44458   L 902.85282,369.65597   C 902.85282,367.13749 904.89158,365.05875 907.45003,365.05875   z "
     id="path5637" />
  <path
     style="fill:#663300;fill-rule:evenodd;fill-opacity:1;stroke:none;"
     d="  M 967.05391,362.26045   C 969.57238,362.10055 971.77105,363.97941 971.93095,366.53786   L 978.84676,463.39915   C 979.04664,465.91763 977.1278,468.11629 974.60933,468.2762   L 956.3404,469.5954   C 953.82193,469.79528 951.62326,467.87644 951.42338,465.35796   L 944.50757,368.49667   C 944.34767,365.93822 946.22653,363.77953 948.78498,363.57965   z "
     id="path5639" />
  <path
     style="fill:#262626;fill-rule:evenodd;fill-opacity:1;stroke:none;"
     d="  M 966.77408,362.1805   C 969.33253,362.02059 971.49122,363.89945 971.6911,366.4579   L 977.68746,450.2871   C 977.84737,452.84555 975.9685,455.00424 973.45003,455.20412   L 955.14113,456.52332   C 952.62265,456.68322 950.42399,454.80436 950.26408,452.24591   L 944.26772,368.37674   C 944.10781,365.85827 945.98667,363.69958 948.50515,363.4997   z "
     id="path5641" />
  <path
     style="fill:#fbe5d6;fill-rule:evenodd;fill-opacity:1;stroke:none;"
     d="  M 893.73834,245.21139   C 893.21866,238.77529 897.97577,233.1387 904.41187,232.61902   L 950.90369,228.74137   C 957.29982,228.22168 962.9364,232.9788 963.45609,239.4149   L 972.41066,347.14961   C 972.97032,353.54573 968.17323,359.18231 961.7771,359.74197   L 915.28528,363.57965   C 908.88916,364.09933 903.25257,359.34222 902.69291,352.94609   z "
     id="path5643" />
  <path
     style="fill:#f2f2f2;fill-rule:evenodd;fill-opacity:1;stroke:none;"
     d="  M 904.41187,232.61902   L 909.8086,232.17929   L 928.99697,248.36947   L 944.86735,229.62084   L 944.4676,229.30103   L 950.90369,228.74137   C 957.29982,228.22168 962.9364,232.9788 963.45609,239.4149   L 972.41066,347.14961   C 972.97032,353.54573 968.17323,359.18231 961.7771,359.74197   L 915.28528,363.57965   C 908.88916,364.09933 903.25257,359.34222 902.69291,352.94609   L 893.73834,245.21139   C 893.21866,238.77529 897.97577,233.1387 904.41187,232.61902   z "
     id="path5645" />
  <path
     style="fill:#ffffff;fill-rule:evenodd;fill-opacity:1;stroke:none;"
     d="  M 926.35857,244.33192   L 931.15566,243.93216   L 940.90975,361.46093   L 936.15263,361.86069   z "
     id="path5647" />
  <path
     style="fill:#262626;fill-rule:evenodd;fill-opacity:1;stroke:none;"
     d="  M 901.77347,341.59297   C 901.57359,339.03452 903.45245,336.79588 905.97093,336.596   L 966.49425,331.55906   C 969.0527,331.35918 971.29134,333.23804 971.49122,335.79649   L 973.0103,354.14537   C 973.21018,356.70382 971.33131,358.94246 968.81284,359.14234   L 908.28952,364.17929   C 905.73107,364.37916 903.49243,362.5003 903.29255,359.94185   z "
     id="path5649" />
  <path
     style="fill:#0d0d0d;fill-rule:evenodd;fill-opacity:1;stroke:none;"
     d="  M 901.65354,335.99637   C 901.57359,335.23683 902.13325,334.59721 902.85282,334.51726   L 968.89279,329.04058   C 969.65233,329.00061 970.29194,329.52029 970.3719,330.27983   L 970.81163,335.63658   C 970.85161,336.39612 970.33192,337.03574 969.57238,337.11569   L 903.5324,342.59237   C 902.81284,342.67232 902.13325,342.11266 902.09328,341.35312   z "
     id="path5651" />
  <path
     style="fill:#bf9000;fill-rule:evenodd;fill-opacity:1;stroke:none;"
     d="  M 928.55724,333.75772   C 928.51726,332.99818 929.07692,332.35857 929.79649,332.27862   L 941.94912,331.27922   C 942.70866,331.23925 943.34827,331.75893 943.42823,332.51847   L 943.86796,337.87523   C 943.90793,338.63477 943.38825,339.27438 942.62871,339.35433   L 930.47608,340.35373   C 929.71654,340.43368 929.07692,339.87402 929.03695,339.11448   z "
     id="path5653" />
  <path
     style="fill:none;stroke:#ffd966;stroke-width:1.3192005px;stroke-linecap:butt;stroke-linejoin:miter;stroke-miterlimit:8;stroke-dasharray:none;stroke-opacity:1;"
     d="  M 928.55724,333.75772   C 928.51726,332.99818 929.07692,332.35857 929.79649,332.27862   L 941.94912,331.27922   C 942.70866,331.23925 943.34827,331.75893 943.42823,332.51847   L 943.86796,337.87523   C 943.90793,338.63477 943.38825,339.27438 942.62871,339.35433   L 930.47608,340.35373   C 929.71654,340.43368 929.07692,339.87402 929.03695,339.11448   z "
     id="path5655" />
  <path
     style="fill:#262626;fill-rule:evenodd;fill-opacity:1;stroke:none;"
     d="  M 950.0642,228.82132   L 950.90369,228.74137   C 957.29982,228.22168 962.9364,232.9788 963.45609,239.4149   L 972.41066,347.14961   L 972.21078,348.90854   L 972.21078,348.90854   L 975.44882,362.30042   C 970.97153,363.37977 966.49425,364.45912 962.01696,365.53846   C 960.1381,365.9782 958.29921,365.65839 956.78013,364.73895   L 955.54088,363.57965   L 955.34101,363.57965   L 951.26348,360.82132   L 951.2235,360.58147   L 950.74379,360.62144   L 951.10357,360.42156   L 951.18353,360.30164   L 950.94367,359.10236   L 952.10297,357.3834   L 952.18292,357.14355   L 943.02847,247.21018   L 944.6275,244.93156   C 947.66566,241.45366 949.42459,237.25621 949.94428,232.9788   z  M 904.41187,232.61902   L 905.37129,232.53907   L 905.851,235.49727   C 906.97032,239.65475 909.32889,243.61236 912.84676,246.69049   L 916.00485,250.24833   L 925.03937,359.38219   L 925.23925,359.78195   L 926.55845,361.14113   L 926.51847,362.22047   L 926.6384,362.46033   L 927.07813,362.62023   L 926.51847,362.66021   L 926.51847,362.90006   L 922.92065,366.298   L 922.16111,366.25803   L 921.04179,367.69715   C 919.72259,368.85645 917.92368,369.49606 916.04482,369.37614   C 911.44761,369.01635 906.85039,368.69655 902.25318,368.37674   L 903.2126,354.66505   L 902.69291,352.94609   L 893.73834,245.21139   C 893.21866,238.77529 897.97577,233.1387 904.41187,232.61902   z "
     id="path5657" />
  <path
     style="fill:#8497b0;fill-rule:evenodd;fill-opacity:1;stroke:none;"
     d="  M 924.83949,246.57056   L 932.79467,245.89098   C 933.91399,245.81102 934.87341,246.61054 934.99334,247.72986   L 939.59055,303.41611   C 939.63053,303.9358 939.47062,304.45548 939.15082,304.85524   L 938.91096,304.97517   L 938.71108,305.5748   L 934.91339,310.13204   C 934.35373,310.73168 933.43428,310.81163 932.79467,310.29194   L 928.27741,306.45427   C 927.9576,306.17444 927.7977,305.81466 927.75772,305.45488   L 927.91763,304.97517   L 927.6378,304.37553   L 923.00061,248.72925   C 922.92065,247.60993 923.72017,246.65051 924.83949,246.57056   z "
     id="path5659" />
  <path
     style="fill:#8497b0;fill-rule:evenodd;fill-opacity:1;stroke:none;"
     d="  M 932.59479,242.0533   L 935.91278,244.85161   C 936.79225,245.57117 936.8722,246.85039 936.15263,247.68988   L 930.99576,253.80618   C 930.2762,254.64567 928.99697,254.72562 928.15748,254.04603   L 922.04119,248.84918   C 921.2017,248.12962 921.12174,246.89037 921.80133,246.05088   L 924.63961,242.69291   L 927.43792,245.09146   C 928.27741,245.77105 929.51666,245.6911 930.23622,244.85161   z "
     id="path5661" />
  <path
     style="fill:#d9d9d9;fill-rule:evenodd;fill-opacity:1;stroke:none;"
     d="  M 912.72683,229.54088   L 928.67717,243.0527   L 942.06905,227.22229   L 945.70684,230.26045   L 929.1169,249.88855   L 909.52877,233.33858   z "
     id="path5663" />
  <path
     style="fill:#fbe5d6;fill-rule:evenodd;fill-opacity:1;stroke:none;"
     d="  M 955.70079,249.8086   C 956.70018,251.44761 956.22047,253.56632 954.58147,254.60569   L 895.17747,291.54331   C 893.53846,292.5427 891.41975,292.06299 890.38038,290.42399   L 883.06481,278.63113   C 882.02544,276.99213 882.54512,274.83343 884.18413,273.83404   L 943.58813,236.89643   C 945.22714,235.89703 947.34585,236.37674 948.34525,238.01575   z "
     id="path5665" />
  <path
     style="fill:#262626;fill-rule:evenodd;fill-opacity:1;stroke:none;"
     d="  M 955.70079,249.8086   C 956.70018,251.44761 956.22047,253.56632 954.58147,254.60569   L 903.81224,286.14658   C 902.17323,287.18595 900.05451,286.66626 899.01514,285.02726   L 891.69958,273.2344   C 890.66021,271.5954 891.17989,269.47668 892.8189,268.47729   L 943.58813,236.89643   C 945.22714,235.89703 947.34585,236.37674 948.34525,238.01575   z "
     id="path5667" />
  <path
     style="fill:#bfbfbf;fill-rule:evenodd;fill-opacity:1;stroke:none;"
     d="  M 362.66021,345.23077   C 362.66021,336.39612 369.81587,329.24046 378.61054,329.24046   L 758.70018,329.24046   C 767.53483,329.24046 774.69049,336.39612 774.69049,345.23077   L 774.69049,409.11205   C 774.69049,417.9467 767.53483,425.06239 758.70018,425.06239   L 378.61054,425.06239   C 369.81587,425.06239 362.66021,417.9467 362.66021,409.11205   z "
     id="path5669" />
  <path
     style="fill:#000000;fill-rule:evenodd;fill-opacity:1;stroke:none;"
     d="  M 380.76923,358.90248   C 380.76923,354.10539 384.64688,350.18776 389.48395,350.18776   L 747.38704,350.18776   C 752.22411,350.18776 756.10176,354.10539 756.10176,358.90248   L 756.10176,393.76136   C 756.10176,398.59843 752.22411,402.51605 747.38704,402.51605   L 389.48395,402.51605   C 384.64688,402.51605 380.76923,398.59843 380.76923,393.76136   z "
     id="path5671" />
  <path
     style="fill:none;stroke:#f2f2f2;stroke-width:1.3192005px;stroke-linecap:butt;stroke-linejoin:miter;stroke-miterlimit:8;stroke-dasharray:none;stroke-opacity:1;"
     d="  M 380.76923,358.90248   C 380.76923,354.10539 384.64688,350.18776 389.48395,350.18776   L 747.38704,350.18776   C 752.22411,350.18776 756.10176,354.10539 756.10176,358.90248   L 756.10176,393.76136   C 756.10176,398.59843 752.22411,402.51605 747.38704,402.51605   L 389.48395,402.51605   C 384.64688,402.51605 380.76923,398.59843 380.76923,393.76136   z "
     id="path5673" />
  <path
     style="fill:#d9d9d9;fill-rule:evenodd;fill-opacity:1;stroke:none;"
     d="  M 797.07692,325.52271   C 797.07692,322.92429 799.15566,320.84555 801.75409,320.84555   L 820.50273,320.84555   C 823.10115,320.84555 825.21987,322.92429 825.21987,325.52271   L 825.21987,466.1175   C 825.21987,468.71593 823.10115,470.83465 820.50273,470.83465   L 801.75409,470.83465   C 799.15566,470.83465 797.07692,468.71593 797.07692,466.1175   z "
     id="path5675" />
  <path
     style="fill:#bfbfbf;fill-rule:evenodd;fill-opacity:1;stroke:none;"
     d="  M 787.16293,299.09873   C 788.28225,297.13992 790.76075,296.5003 792.71956,297.61962   L 853.80254,332.87826   C 855.72138,333.99758 856.40097,336.47608 855.28165,338.43489   L 847.08661,352.62629   C 845.96729,354.5851 843.48879,355.22471 841.52998,354.10539   L 780.447,318.84676   C 778.52816,317.72744 777.84858,315.20896 778.9679,313.29013   z "
     id="path5677" />
  <path
     style="fill:#ff5050;fill-rule:evenodd;fill-opacity:1;stroke:none;"
     d="  M 813.58692,285.18716   C 814.78619,283.10842 817.42459,282.42883 819.46336,283.58813   L 853.72259,303.41611   C 855.80133,304.57541 856.48092,307.21381 855.32162,309.25257   L 846.72683,324.08359   C 845.56753,326.16233 842.92913,326.84191 840.89037,325.68262   L 806.59116,305.85463   C 804.55239,304.69534 803.83283,302.05694 805.0321,300.01817   z "
     id="path5679" />
  <path
     style="fill:#f2f2f2;fill-rule:evenodd;fill-opacity:1;stroke:none;"
     d="  M 799.07571,296.90006   C 799.27559,296.5003 799.7553,296.38038 800.15506,296.58025   L 851.52392,326.24228   C 851.92368,326.48213 852.04361,326.96184 851.80376,327.3616   L 850.20472,330.11993   C 850.00485,330.51969 849.52514,330.63961 849.12538,330.39976   L 797.75651,300.73773   C 797.35675,300.53786 797.23683,300.05815 797.47668,299.65839   z "
     id="path5681" />
  <path
     style="fill:#404040;fill-rule:evenodd;fill-opacity:1;stroke:none;"
     d="  M 362.64022,363.71956   L 362.64022,373.5536   L 357.74319,375.19261   C 348.149,379.50999 341.41308,389.62386 341.41308,401.43671   C 341.41308,411.25076 346.09025,419.9255 353.20594,425.0424   L 356.7238,427.08116   L 356.7238,437.69473   L 353.56572,436.65536   C 340.69352,430.83889 331.65899,417.26711 331.65899,401.43671   C 331.65899,382.94791 343.95154,367.53725 360.30164,363.97941   z "
     id="path5683" />
  <path
     style="fill:#404040;fill-rule:evenodd;fill-opacity:1;stroke:none;"
     d="  M 362.98001,379.78982   L 362.98001,389.62386   L 358.08298,391.24288   C 348.48879,395.56027 341.75288,405.69412 341.75288,417.48698   C 341.75288,427.32102 346.43004,435.99576 353.54573,441.11266   L 357.0636,443.15142   L 357.0636,453.76499   L 353.88552,452.70563   C 341.01333,446.90915 331.9788,433.31738 331.9788,417.48698   C 331.9788,399.01817 344.27135,383.60751 360.62144,380.02968   z "
     id="path5685" />
  <text
     xml:space="preserve"
     style="font-size:63.937500px;font-style:normal;font-variant:normal;font-weight:400;font-stretch:Normal;line-height:125.000000%;letter-spacing:0px;word-spacing:0px;fill:#000000;fill-opacity:1;stroke:none;font-family:Corbel;text-align:start;text-anchor:start;"
     transform="matrix(1.000000,-0.000000,0.000000,1.000000,406.716357,324.312100)"
     x="0.000000"
     y="0.000000"
     id="text5691"><tspan
       sodipodi:role="line"
       x="0.000000"
       y="0.000000"
       id="tspan5689"><tspan
         dx="0.000000"
         dy="0.000000"
         style="fill:#F2F2F2;font-size:63.937500px;font-style:normal;font-variant:normal;font-weight:400;font-stretch:Normal;font-family:Corbel;"
         id="tspan5687">Justin Chong</tspan></tspan></text>
</svg>
