<?xml version="1.0" encoding="UTF-8" standalone="no"?>
<svg
   xmlns:dc="http://purl.org/dc/elements/1.1/"
   xmlns:cc="http://creativecommons.org/ns#"
   xmlns:rdf="http://www.w3.org/1999/02/22-rdf-syntax-ns#"
   xmlns:svg="http://www.w3.org/2000/svg"
   xmlns="http://www.w3.org/2000/svg"
   xmlns:sodipodi="http://sodipodi.sourceforge.net/DTD/sodipodi-0.dtd"
   xmlns:inkscape="http://www.inkscape.org/namespaces/inkscape"
   version="1.0"
   width="338.79001mm"
   height="190.2mm"
   id="svg22031"
   sodipodi:docname="Slide27.svg"
   inkscape:version="0.92.3 (2405546, 2018-03-11)">
  <metadata
     id="metadata22035">
    <rdf:RDF>
      <cc:Work
         rdf:about="">
        <dc:format>image/svg+xml</dc:format>
        <dc:type
           rdf:resource="http://purl.org/dc/dcmitype/StillImage" />
        <dc:title></dc:title>
      </cc:Work>
    </rdf:RDF>
  </metadata>
  <sodipodi:namedview
     pagecolor="#ffffff"
     bordercolor="#666666"
     borderopacity="1"
     objecttolerance="10"
     gridtolerance="10"
     guidetolerance="10"
     inkscape:pageopacity="0"
     inkscape:pageshadow="2"
     inkscape:window-width="716"
     inkscape:window-height="480"
     id="namedview22033"
     showgrid="false"
     inkscape:zoom="0.22179422"
     inkscape:cx="640.23309"
     inkscape:cy="359.43307"
     inkscape:window-x="0"
     inkscape:window-y="0"
     inkscape:window-maximized="0"
     inkscape:current-layer="svg22031" />
  <defs
     id="defs21927">
    <pattern
       id="EMFhbasepattern"
       patternUnits="userSpaceOnUse"
       width="6"
       height="6"
       x="0"
       y="0" />
  </defs>
  <text
     xml:space="preserve"
     style="font-size:63.937500px;font-style:normal;font-variant:normal;font-weight:400;font-stretch:Normal;line-height:125.000000%;letter-spacing:0px;word-spacing:0px;fill:#000000;fill-opacity:1;stroke:none;font-family:Corbel;text-align:start;text-anchor:start;"
     transform="matrix(1.000000,-0.000000,0.000000,1.000000,409.381187,322.313311)"
     x="0.000000"
     y="0.000000"
     id="text21935"><tspan
       sodipodi:role="line"
       x="0.000000"
       y="0.000000"
       id="tspan21933"><tspan
         dx="0.000000"
         dy="0.000000"
         style="fill:#D9D9D9;font-size:63.937500px;font-style:normal;font-variant:normal;font-weight:400;font-stretch:Normal;font-family:Corbel;"
         id="tspan21931">Justin Chong</tspan></tspan></text>
  <path
     style="fill:#7f7f7f;fill-rule:evenodd;fill-opacity:1;stroke:none;"
     d="  M 356.74379,427.26105   C 356.74379,422.46396 360.62144,418.54634 365.45851,418.54634   L 797.99637,418.54634   C 802.83343,418.54634 806.71108,422.46396 806.71108,427.26105   L 806.71108,462.1599   C 806.71108,466.957 802.83343,470.87462 797.99637,470.87462   L 365.45851,470.87462   C 360.62144,470.87462 356.74379,466.957 356.74379,462.1599   z "
     id="path21937" />
  <path
     style="fill:#d9d9d9;fill-rule:evenodd;fill-opacity:1;stroke:none;"
     d="  M 370.65536,337.87523   C 370.65536,328.48092 378.29073,320.84555 387.68504,320.84555   L 772.01211,320.84555   C 781.4464,320.84555 789.08177,328.48092 789.08177,337.87523   L 789.08177,406.03392   C 789.08177,415.4682 781.4464,423.0636 772.01211,423.0636   L 387.68504,423.0636   C 378.29073,423.0636 370.65536,415.4682 370.65536,406.03392   z "
     id="path21939" />
  <path
     style="fill:#996633;fill-rule:evenodd;fill-opacity:1;stroke:none;"
     d="  M 929.1169,194.28225   C 930.83586,189.00545 928.55724,186.40703 924,188.48577   C 919.48274,190.52453 914.40581,196.48092 912.68686,201.71775   C 911.76741,204.51605 911.92732,206.67474 913.16657,207.67414   z "
     id="path21941" />
  <path
     style="fill:#663300;fill-rule:evenodd;fill-opacity:1;stroke:none;"
     d="  M 931.63537,194.72199   C 933.79406,186.16717 932.23501,182.04967 928.1175,185.48758   C 924,188.96548 918.92308,198.67959 916.76439,207.19443   C 915.32526,212.83101 915.48516,216.78861 917.20412,217.50818   z "
     id="path21943" />
  <path
     style="fill:#663300;fill-rule:evenodd;fill-opacity:1;stroke:none;"
     d="  M 951.3834,186.447   C 951.26348,178.05209 954.58147,175.05391 958.77892,179.81102   C 963.01635,184.52816 966.53422,195.16172 966.69412,203.59661   C 966.77408,208.59358 965.61478,211.87159 963.61599,212.39128   z "
     id="path21945" />
  <path
     style="fill:#996633;fill-rule:evenodd;fill-opacity:1;stroke:none;"
     d="  M 951.0636,195.16172   C 949.98425,186.20715 951.66323,181.92974 954.82132,185.60751   C 957.93943,189.28528 961.37735,199.4791 962.45669,208.43368   C 963.21623,214.6699 962.6166,218.90733 960.97759,219.26711   z "
     id="path21947" />
  <path
     style="fill:#fbe5d6;fill-rule:evenodd;fill-opacity:1;stroke:none;"
     d="  M 918.28346,198.99939   C 918.28346,189.76499 925.79891,182.24955 935.07329,182.24955   L 943.98789,182.24955   C 953.26227,182.24955 960.77771,189.76499 960.77771,198.99939   L 960.77771,211.95154   C 960.77771,221.22592 953.26227,228.70139 943.98789,228.70139   L 935.07329,228.70139   C 925.79891,228.70139 918.28346,221.22592 918.28346,211.95154   z "
     id="path21949" />
  <path
     style="fill:#663300;fill-rule:evenodd;fill-opacity:1;stroke:none;"
     d="  M 923.64022,199.91884   C 916.64446,195.84131 915.04543,186.88674 920.08237,179.93095   C 925.11932,172.93519 934.91339,170.6166 941.90915,174.69412   C 944.10781,175.97335 945.86675,177.81224 947.02604,180.0109   z "
     id="path21951" />
  <path
     style="fill:#663300;fill-rule:evenodd;fill-opacity:1;stroke:none;"
     d="  M 932.79467,174.49425   C 937.23198,167.69836 946.26651,166.57904 952.94246,171.9358   C 959.65839,177.33253 961.49727,187.20654 957.05996,194.0424   C 955.66081,196.16111 953.74197,197.8401 951.50333,198.83949   z "
     id="path21953" />
  <path
     style="fill:#996633;fill-rule:evenodd;fill-opacity:1;stroke:none;"
     d="  M 941.70927,199.27922   C 933.63416,199.83889 927.27801,193.36281 927.51787,184.72804   C 927.75772,176.13325 934.5536,168.69776 942.62871,168.1381   C 945.18716,167.9782 947.66566,168.49788 949.86432,169.69715   z "
     id="path21955" />
  <path
     style="fill:#996633;fill-rule:evenodd;fill-opacity:1;stroke:none;"
     d="  M 939.75045,182.84918   C 940.15021,174.25439 946.94609,168.21805 954.98122,169.41732   C 963.01635,170.57662 969.2126,178.49182 968.81284,187.08661   C 968.57299,192.68322 965.53483,197.44034 960.85766,199.55906   z "
     id="path21957" />
  <path
     style="fill:#996633;fill-rule:evenodd;fill-opacity:1;stroke:none;"
     d="  M 917.5639,198.75954   C 910.52816,194.68201 908.92913,185.72744 913.96608,178.73168   C 919.043,171.77589 928.79709,169.41732 935.83283,173.49485   C 938.0315,174.81405 939.79043,176.65294 940.90975,178.85161   z "
     id="path21959" />
  <path
     style="fill:#996633;fill-rule:evenodd;fill-opacity:1;stroke:none;"
     d="  M 913.40642,180.89037   C 914.72562,168.73773 928.51726,161.42217 944.18776,164.58025   C 950.46396,165.8195 956.38038,168.65778 961.01757,172.61538   z "
     id="path21961" />
  <path
     style="fill:#fbe5d6;fill-rule:evenodd;fill-opacity:1;stroke:none;"
     d="  M 904.45185,240.69412   C 902.61296,241.29376 900.65415,240.33434 900.01454,238.49546   L 877.50818,172.29558   C 876.86856,170.45669 877.86796,168.49788 879.66687,167.85827   L 892.8189,163.38098   C 894.65778,162.78134 896.6166,163.74076 897.25621,165.57965   L 919.76257,231.8195   C 920.3622,233.61841 919.40279,235.57723 917.60388,236.21684   z "
     id="path21963" />
  <path
     style="fill:#262626;fill-rule:evenodd;fill-opacity:1;stroke:none;"
     d="  M 904.45185,240.69412   C 902.61296,241.29376 900.65415,240.33434 900.01454,238.49546   L 881.46578,183.9685   C 880.86614,182.16959 881.82556,180.21078 883.66445,179.57117   L 896.81647,175.09388   C 898.61538,174.49425 900.61417,175.45366 901.21381,177.25257   L 919.76257,231.8195   C 920.3622,233.61841 919.40279,235.57723 917.60388,236.21684   z "
     id="path21965" />
  <path
     style="fill:#663300;fill-rule:evenodd;fill-opacity:1;stroke:none;"
     d="  M 926.15869,365.17868   C 928.67717,365.17868 930.75591,367.21744 930.75591,369.73592   L 930.75591,466.87704   C 930.75591,469.39552 928.67717,471.43428 926.15869,471.43428   L 907.84979,471.43428   C 905.29134,471.43428 903.25257,469.39552 903.25257,466.87704   L 903.25257,369.73592   C 903.25257,367.21744 905.29134,365.17868 907.84979,365.17868   z "
     id="path21967" />
  <path
     style="fill:#262626;fill-rule:evenodd;fill-opacity:1;stroke:none;"
     d="  M 925.75893,365.05875   C 928.27741,365.05875 930.35615,367.13749 930.35615,369.65597   L 930.35615,454.44458   C 930.35615,456.96305 928.27741,459.00182 925.75893,459.00182   L 907.45003,459.00182   C 904.89158,459.00182 902.85282,456.96305 902.85282,454.44458   L 902.85282,369.65597   C 902.85282,367.13749 904.89158,365.05875 907.45003,365.05875   z "
     id="path21969" />
  <path
     style="fill:#663300;fill-rule:evenodd;fill-opacity:1;stroke:none;"
     d="  M 972.13083,365.17868   C 974.6493,365.17868 976.72804,367.21744 976.72804,369.73592   L 976.72804,466.87704   C 976.72804,469.39552 974.6493,471.43428 972.13083,471.43428   L 953.82193,471.43428   C 951.26348,471.43428 949.22471,469.39552 949.22471,466.87704   L 949.22471,369.73592   C 949.22471,367.21744 951.26348,365.17868 953.82193,365.17868   z "
     id="path21971" />
  <path
     style="fill:#262626;fill-rule:evenodd;fill-opacity:1;stroke:none;"
     d="  M 971.89098,365.05875   C 974.40945,365.05875 976.48819,367.13749 976.48819,369.65597   L 976.48819,453.72502   C 976.48819,456.24349 974.40945,458.32223 971.89098,458.32223   L 953.58207,458.32223   C 951.02362,458.32223 948.98486,456.24349 948.98486,453.72502   L 948.98486,369.65597   C 948.98486,367.13749 951.02362,365.05875 953.58207,365.05875   z "
     id="path21973" />
  <path
     style="fill:#fbe5d6;fill-rule:evenodd;fill-opacity:1;stroke:none;"
     d="  M 905.01151,240.894   C 905.01151,234.4579 910.20836,229.26105 916.68443,229.26105   L 963.29618,229.26105   C 969.73228,229.26105 974.96911,234.4579 974.96911,240.894   L 974.96911,349.02847   C 974.96911,355.46457 969.73228,360.66142 963.29618,360.66142   L 916.68443,360.66142   C 910.20836,360.66142 905.01151,355.46457 905.01151,349.02847   z "
     id="path21975" />
  <path
     style="fill:#f2f2f2;fill-rule:evenodd;fill-opacity:1;stroke:none;"
     d="  M 916.68443,229.26105   L 922.08116,229.26105   L 939.83041,247.0103   L 957.21987,229.62084   L 956.86008,229.26105   L 963.29618,229.26105   C 969.73228,229.26105 974.96911,234.4579 974.96911,240.894   L 974.96911,349.02847   C 974.96911,355.46457 969.73228,360.66142 963.29618,360.66142   L 916.68443,360.66142   C 910.20836,360.66142 905.01151,355.46457 905.01151,349.02847   L 905.01151,240.894   C 905.01151,234.4579 910.20836,229.26105 916.68443,229.26105   z "
     id="path21977" />
  <path
     style="fill:#ffffff;fill-rule:evenodd;fill-opacity:1;stroke:none;"
     d="  M 937.59176,242.73289   L 937.59176,360.66142   L 942.38886,360.66142   L 942.38886,242.73289   L 937.59176,242.73289   z "
     id="path21979" />
  <path
     style="fill:#262626;fill-rule:evenodd;fill-opacity:1;stroke:none;"
     d="  M 905.01151,337.63537   C 905.01151,335.07692 907.05027,332.99818 909.60872,332.99818   L 970.3719,332.99818   C 972.89037,332.99818 974.96911,335.07692 974.96911,337.63537   L 974.96911,356.0642   C 974.96911,358.62265 972.89037,360.66142 970.3719,360.66142   L 909.60872,360.66142   C 907.05027,360.66142 905.01151,358.62265 905.01151,356.0642   z "
     id="path21981" />
  <path
     style="fill:#0d0d0d;fill-rule:evenodd;fill-opacity:1;stroke:none;"
     d="  M 905.33131,332.03876   C 905.33131,331.27922 905.93095,330.67959 906.69049,330.67959   L 972.93035,330.67959   C 973.68988,330.67959 974.28952,331.27922 974.28952,332.03876   L 974.28952,337.43549   C 974.28952,338.19503 973.68988,338.79467 972.93035,338.79467   L 906.69049,338.79467   C 905.93095,338.79467 905.33131,338.19503 905.33131,337.43549   z "
     id="path21983" />
  <path
     style="fill:#bf9000;fill-rule:evenodd;fill-opacity:1;stroke:none;"
     d="  M 932.35494,332.03876   C 932.35494,331.27922 932.99455,330.67959 933.71411,330.67959   L 945.90672,330.67959   C 946.66626,330.67959 947.2659,331.27922 947.2659,332.03876   L 947.2659,337.43549   C 947.2659,338.19503 946.66626,338.79467 945.90672,338.79467   L 933.71411,338.79467   C 932.99455,338.79467 932.35494,338.19503 932.35494,337.43549   z "
     id="path21985" />
  <path
     style="fill:none;stroke:#ffd966;stroke-width:1.3192005px;stroke-linecap:butt;stroke-linejoin:miter;stroke-miterlimit:8;stroke-dasharray:none;stroke-opacity:1;"
     d="  M 932.35494,332.03876   C 932.35494,331.27922 932.99455,330.67959 933.71411,330.67959   L 945.90672,330.67959   C 946.66626,330.67959 947.2659,331.27922 947.2659,332.03876   L 947.2659,337.43549   C 947.2659,338.19503 946.66626,338.79467 945.90672,338.79467   L 933.71411,338.79467   C 932.99455,338.79467 932.35494,338.19503 932.35494,337.43549   z "
     id="path21987" />
  <path
     style="fill:#262626;fill-rule:evenodd;fill-opacity:1;stroke:none;"
     d="  M 962.45669,229.26105   L 963.29618,229.26105   C 969.73228,229.26105 974.96911,234.4579 974.96911,240.894   L 974.96911,349.02847   L 974.60933,350.74743   L 974.60933,350.74743   L 976.72804,364.37916   C 972.17081,365.05875 967.61357,365.77832 963.05633,366.49788   C 961.17747,366.77771 959.33858,366.298 957.93943,365.25863   L 956.74016,363.97941   L 956.58025,364.01938   L 952.74258,360.90127   L 952.7026,360.66142   L 952.2229,360.66142   L 952.62265,360.50151   L 952.66263,360.38159   L 952.5427,359.14234   L 953.8619,357.50333   L 953.94185,357.30345   L 953.94185,247.0103   L 955.70079,244.85161   C 959.01878,241.61357 961.13749,237.61599 962.01696,233.37856   z  M 916.68443,229.26105   L 917.60388,229.26105   L 917.88371,232.21926   C 918.64325,236.49667 920.64204,240.61417 923.92005,244.01211   L 926.75833,247.76984   L 926.75833,357.30345   L 926.91823,357.70321   L 928.07753,359.14234   L 927.9576,360.26166   L 928.07753,360.50151   L 928.47729,360.66142   L 927.91763,360.66142   L 927.87765,360.90127   L 924.03998,364.01938   L 923.28044,363.89945   L 922.04119,365.25863   C 920.64204,366.298 918.80315,366.77771 916.92429,366.49788   C 912.36705,365.77832 907.80981,365.05875 903.25257,364.37916   L 905.37129,350.7874   L 905.01151,349.02847   L 905.01151,240.894   C 905.01151,234.4579 910.20836,229.26105 916.68443,229.26105   z "
     id="path21989" />
  <path
     style="fill:#8497b0;fill-rule:evenodd;fill-opacity:1;stroke:none;"
     d="  M 935.8728,244.85161   L 943.86796,244.85161   C 944.98728,244.85161 945.86675,245.73107 945.86675,246.85039   L 945.86675,302.69655   C 945.86675,303.25621 945.66687,303.77589 945.26711,304.13568   L 945.06723,304.21563   L 944.82738,304.81526   L 940.62992,309.01272   C 940.07026,309.57238 939.11084,309.57238 938.55118,309.01272   L 934.35373,304.81526   C 934.03392,304.53543 933.91399,304.13568 933.91399,303.77589   L 934.11387,303.29618   L 933.87402,302.69655   L 933.87402,246.85039   C 933.87402,245.73107 934.75348,244.85161 935.8728,244.85161   z "
     id="path21991" />
  <path
     style="fill:#8497b0;fill-rule:evenodd;fill-opacity:1;stroke:none;"
     d="  M 943.98789,240.97396   L 947.06602,244.05209   C 947.86554,244.85161 947.86554,246.13083 947.06602,246.89037   L 941.38946,252.56693   C 940.62992,253.32647 939.3507,253.32647 938.55118,252.56693   L 932.9146,246.89037   C 932.11508,246.13083 932.11508,244.85161 932.9146,244.05209   L 935.99273,240.97396   L 938.55118,243.57238   C 939.3507,244.3719 940.62992,244.3719 941.38946,243.57238   z "
     id="path21993" />
  <path
     style="fill:#d9d9d9;fill-rule:evenodd;fill-opacity:1;stroke:none;"
     d="  M 925.23925,226.90248   L 939.99031,241.65354   L 954.66142,226.98243   L 958.01938,230.3404   L 939.83041,248.4894   L 921.72138,230.38038   z "
     id="path21995" />
  <path
     style="fill:#fbe5d6;fill-rule:evenodd;fill-opacity:1;stroke:none;"
     d="  M 964.89522,242.13325   C 963.01635,241.65354 961.89703,239.73471 962.41672,237.89582   L 980.16596,170.21684   C 980.68565,168.37795 982.56451,167.25863 984.44337,167.73834   L 997.87523,171.29618   C 999.71411,171.77589 1000.8334,173.65475 1000.3537,175.53362   L 982.56451,243.17262   C 982.0848,245.05148 980.16596,246.13083 978.32707,245.65112   z "
     id="path21997" />
  <path
     style="fill:#262626;fill-rule:evenodd;fill-opacity:1;stroke:none;"
     d="  M 964.89522,242.13325   C 963.01635,241.65354 961.89703,239.73471 962.41672,237.89582   L 977.60751,180.05088   C 978.08722,178.21199 979.96608,177.09267 981.84494,177.57238   L 995.2768,181.13022   C 997.11569,181.60993 998.23501,183.48879 997.7553,185.36766   L 982.56451,243.17262   C 982.0848,245.05148 980.16596,246.13083 978.32707,245.65112   z "
     id="path21999" />
  <path
     style="fill:#bfbfbf;fill-rule:evenodd;fill-opacity:1;stroke:none;"
     d="  M 362.66021,345.23077   C 362.66021,336.39612 369.81587,329.24046 378.61054,329.24046   L 758.70018,329.24046   C 767.53483,329.24046 774.69049,336.39612 774.69049,345.23077   L 774.69049,409.11205   C 774.69049,417.9467 767.53483,425.06239 758.70018,425.06239   L 378.61054,425.06239   C 369.81587,425.06239 362.66021,417.9467 362.66021,409.11205   z "
     id="path22001" />
  <path
     style="fill:#000000;fill-rule:evenodd;fill-opacity:1;stroke:none;"
     d="  M 380.76923,358.90248   C 380.76923,354.10539 384.64688,350.18776 389.48395,350.18776   L 747.38704,350.18776   C 752.22411,350.18776 756.10176,354.10539 756.10176,358.90248   L 756.10176,393.76136   C 756.10176,398.59843 752.22411,402.51605 747.38704,402.51605   L 389.48395,402.51605   C 384.64688,402.51605 380.76923,398.59843 380.76923,393.76136   z "
     id="path22003" />
  <path
     style="fill:none;stroke:#f2f2f2;stroke-width:1.3192005px;stroke-linecap:butt;stroke-linejoin:miter;stroke-miterlimit:8;stroke-dasharray:none;stroke-opacity:1;"
     d="  M 380.76923,358.90248   C 380.76923,354.10539 384.64688,350.18776 389.48395,350.18776   L 747.38704,350.18776   C 752.22411,350.18776 756.10176,354.10539 756.10176,358.90248   L 756.10176,393.76136   C 756.10176,398.59843 752.22411,402.51605 747.38704,402.51605   L 389.48395,402.51605   C 384.64688,402.51605 380.76923,398.59843 380.76923,393.76136   z "
     id="path22005" />
  <path
     style="fill:#d9d9d9;fill-rule:evenodd;fill-opacity:1;stroke:none;"
     d="  M 797.07692,325.52271   C 797.07692,322.92429 799.15566,320.84555 801.75409,320.84555   L 820.50273,320.84555   C 823.10115,320.84555 825.21987,322.92429 825.21987,325.52271   L 825.21987,466.1175   C 825.21987,468.71593 823.10115,470.83465 820.50273,470.83465   L 801.75409,470.83465   C 799.15566,470.83465 797.07692,468.71593 797.07692,466.1175   z "
     id="path22007" />
  <path
     style="fill:#bfbfbf;fill-rule:evenodd;fill-opacity:1;stroke:none;"
     d="  M 787.16293,299.09873   C 788.28225,297.13992 790.76075,296.5003 792.71956,297.61962   L 853.80254,332.87826   C 855.72138,333.99758 856.40097,336.47608 855.28165,338.43489   L 847.08661,352.62629   C 845.96729,354.5851 843.48879,355.22471 841.52998,354.10539   L 780.447,318.84676   C 778.52816,317.72744 777.84858,315.20896 778.9679,313.29013   z "
     id="path22009" />
  <path
     style="fill:#ff5050;fill-rule:evenodd;fill-opacity:1;stroke:none;"
     d="  M 813.58692,285.18716   C 814.78619,283.10842 817.42459,282.42883 819.46336,283.58813   L 853.72259,303.41611   C 855.80133,304.57541 856.48092,307.21381 855.32162,309.25257   L 846.72683,324.08359   C 845.56753,326.16233 842.92913,326.84191 840.89037,325.68262   L 806.59116,305.85463   C 804.55239,304.69534 803.83283,302.05694 805.0321,300.01817   z "
     id="path22011" />
  <path
     style="fill:#f2f2f2;fill-rule:evenodd;fill-opacity:1;stroke:none;"
     d="  M 799.07571,296.90006   C 799.27559,296.5003 799.7553,296.38038 800.15506,296.58025   L 851.52392,326.24228   C 851.92368,326.48213 852.04361,326.96184 851.80376,327.3616   L 850.20472,330.11993   C 850.00485,330.51969 849.52514,330.63961 849.12538,330.39976   L 797.75651,300.73773   C 797.35675,300.53786 797.23683,300.05815 797.47668,299.65839   z "
     id="path22013" />
  <path
     style="fill:#404040;fill-rule:evenodd;fill-opacity:1;stroke:none;"
     d="  M 362.64022,363.71956   L 362.64022,373.5536   L 357.74319,375.19261   C 348.149,379.50999 341.41308,389.62386 341.41308,401.43671   C 341.41308,411.25076 346.09025,419.9255 353.20594,425.0424   L 356.7238,427.08116   L 356.7238,437.69473   L 353.56572,436.65536   C 340.69352,430.83889 331.65899,417.26711 331.65899,401.43671   C 331.65899,382.94791 343.95154,367.53725 360.30164,363.97941   z "
     id="path22015" />
  <path
     style="fill:#404040;fill-rule:evenodd;fill-opacity:1;stroke:none;"
     d="  M 362.98001,379.78982   L 362.98001,389.62386   L 358.08298,391.24288   C 348.48879,395.56027 341.75288,405.69412 341.75288,417.48698   C 341.75288,427.32102 346.43004,435.99576 353.54573,441.11266   L 357.0636,443.15142   L 357.0636,453.76499   L 353.88552,452.70563   C 341.01333,446.90915 331.9788,433.31738 331.9788,417.48698   C 331.9788,399.01817 344.27135,383.60751 360.62144,380.02968   z "
     id="path22017" />
  <text
     xml:space="preserve"
     style="font-size:63.937500px;font-style:normal;font-variant:normal;font-weight:400;font-stretch:Normal;line-height:125.000000%;letter-spacing:0px;word-spacing:0px;fill:#000000;fill-opacity:1;stroke:none;font-family:Corbel;text-align:start;text-anchor:start;"
     transform="matrix(1.000000,-0.000000,0.000000,1.000000,406.716357,324.312100)"
     x="0.000000"
     y="0.000000"
     id="text22023"><tspan
       sodipodi:role="line"
       x="0.000000"
       y="0.000000"
       id="tspan22021"><tspan
         dx="0.000000"
         dy="0.000000"
         style="fill:#FFD966;font-size:63.937500px;font-style:normal;font-variant:normal;font-weight:400;font-stretch:Normal;font-family:Corbel;"
         id="tspan22019">Justin</tspan></tspan></text>
  <text
     xml:space="preserve"
     style="font-size:63.937500px;font-style:normal;font-variant:normal;font-weight:400;font-stretch:Normal;line-height:125.000000%;letter-spacing:0px;word-spacing:0px;fill:#000000;fill-opacity:1;stroke:none;font-family:Corbel;text-align:start;text-anchor:start;"
     transform="matrix(1.000000,-0.000000,0.000000,1.000000,570.776926,324.312100)"
     x="0.000000"
     y="0.000000"
     id="text22029"><tspan
       sodipodi:role="line"
       x="0.000000"
       y="0.000000"
       id="tspan22027"><tspan
         dx="0.000000"
         dy="0.000000"
         style="fill:#FFD966;font-size:63.937500px;font-style:normal;font-variant:normal;font-weight:400;font-stretch:Normal;font-family:Corbel;"
         id="tspan22025">Chong</tspan></tspan></text>
</svg>
