<?xml version="1.0" encoding="UTF-8" standalone="no"?>
<svg
   xmlns:dc="http://purl.org/dc/elements/1.1/"
   xmlns:cc="http://creativecommons.org/ns#"
   xmlns:rdf="http://www.w3.org/1999/02/22-rdf-syntax-ns#"
   xmlns:svg="http://www.w3.org/2000/svg"
   xmlns="http://www.w3.org/2000/svg"
   xmlns:sodipodi="http://sodipodi.sourceforge.net/DTD/sodipodi-0.dtd"
   xmlns:inkscape="http://www.inkscape.org/namespaces/inkscape"
   version="1.0"
   width="338.79001mm"
   height="190.2mm"
   id="svg7637"
   sodipodi:docname="Slide5.svg"
   inkscape:version="0.92.3 (2405546, 2018-03-11)">
  <metadata
     id="metadata7641">
    <rdf:RDF>
      <cc:Work
         rdf:about="">
        <dc:format>image/svg+xml</dc:format>
        <dc:type
           rdf:resource="http://purl.org/dc/dcmitype/StillImage" />
        <dc:title></dc:title>
      </cc:Work>
    </rdf:RDF>
  </metadata>
  <sodipodi:namedview
     pagecolor="#ffffff"
     bordercolor="#666666"
     borderopacity="1"
     objecttolerance="10"
     gridtolerance="10"
     guidetolerance="10"
     inkscape:pageopacity="0"
     inkscape:pageshadow="2"
     inkscape:window-width="716"
     inkscape:window-height="480"
     id="namedview7639"
     showgrid="false"
     inkscape:zoom="0.22179422"
     inkscape:cx="640.23309"
     inkscape:cy="359.43307"
     inkscape:window-x="0"
     inkscape:window-y="0"
     inkscape:window-maximized="0"
     inkscape:current-layer="svg7637" />
  <defs
     id="defs7539">
    <pattern
       id="EMFhbasepattern"
       patternUnits="userSpaceOnUse"
       width="6"
       height="6"
       x="0"
       y="0" />
  </defs>
  <text
     xml:space="preserve"
     style="font-size:63.937500px;font-style:normal;font-variant:normal;font-weight:400;font-stretch:Normal;line-height:125.000000%;letter-spacing:0px;word-spacing:0px;fill:#000000;fill-opacity:1;stroke:none;font-family:Corbel;text-align:start;text-anchor:start;"
     transform="matrix(1.000000,-0.000000,0.000000,1.000000,409.381187,322.313311)"
     x="0.000000"
     y="0.000000"
     id="text7547"><tspan
       sodipodi:role="line"
       x="0.000000"
       y="0.000000"
       id="tspan7545"><tspan
         dx="0.000000"
         dy="0.000000"
         style="fill:#D9D9D9;font-size:63.937500px;font-style:normal;font-variant:normal;font-weight:400;font-stretch:Normal;font-family:Corbel;"
         id="tspan7543">Justin Chong</tspan></tspan></text>
  <path
     style="fill:#7f7f7f;fill-rule:evenodd;fill-opacity:1;stroke:none;"
     d="  M 356.74379,427.26105   C 356.74379,422.46396 360.62144,418.54634 365.45851,418.54634   L 797.99637,418.54634   C 802.83343,418.54634 806.71108,422.46396 806.71108,427.26105   L 806.71108,462.1599   C 806.71108,466.957 802.83343,470.87462 797.99637,470.87462   L 365.45851,470.87462   C 360.62144,470.87462 356.74379,466.957 356.74379,462.1599   z "
     id="path7549" />
  <path
     style="fill:#d9d9d9;fill-rule:evenodd;fill-opacity:1;stroke:none;"
     d="  M 370.65536,337.87523   C 370.65536,328.48092 378.29073,320.84555 387.68504,320.84555   L 772.01211,320.84555   C 781.4464,320.84555 789.08177,328.48092 789.08177,337.87523   L 789.08177,406.03392   C 789.08177,415.4682 781.4464,423.0636 772.01211,423.0636   L 387.68504,423.0636   C 378.29073,423.0636 370.65536,415.4682 370.65536,406.03392   z "
     id="path7551" />
  <path
     style="fill:#996633;fill-rule:evenodd;fill-opacity:1;stroke:none;"
     d="  M 887.34222,206.15506   C 887.34222,200.6384 884.38401,198.83949 880.66626,202.19746   C 876.98849,205.55542 873.99031,212.75106 873.95033,218.30769   C 873.95033,221.22592 874.78982,223.22471 876.26893,223.78437   z "
     id="path7553" />
  <path
     style="fill:#663300;fill-rule:evenodd;fill-opacity:1;stroke:none;"
     d="  M 889.86069,205.79528   C 889.30103,197.00061 886.5427,193.56269 883.66445,198.11993   C 880.82617,202.67717 878.98728,213.47062 879.54694,222.26529   C 879.90672,228.06178 881.2659,231.77953 883.10478,231.93943   z "
     id="path7555" />
  <path
     style="fill:#663300;fill-rule:evenodd;fill-opacity:1;stroke:none;"
     d="  M 906.13083,191.84373   C 903.41248,183.88855 905.65112,180.05088 911.1278,183.28892   C 916.56451,186.48698 923.20048,195.5215 925.91884,203.47668   C 927.55784,208.19382 927.47789,211.71169 925.71896,212.83101   z "
     id="path7557" />
  <path
     style="fill:#996633;fill-rule:evenodd;fill-opacity:1;stroke:none;"
     d="  M 908.4894,200.27862   C 904.73168,192.08359 905.01151,187.48637 909.12901,190.04482   C 913.24652,192.56329 919.64264,201.23804 923.40036,209.43307   C 926.03876,215.10963 926.75833,219.30709 925.3192,220.18655   z "
     id="path7559" />
  <path
     style="fill:#fbe5d6;fill-rule:evenodd;fill-opacity:1;stroke:none;"
     d="  M 878.4676,213.99031   C 875.62932,205.19564 880.46638,195.72138 889.30103,192.8831   L 897.77589,190.16475   C 906.61054,187.28649 916.04482,192.16354 918.8831,200.95821   L 922.88068,213.27075   C 925.71896,222.06541 920.88189,231.53967 912.04724,234.37795   L 903.5324,237.09631   C 894.73773,239.97456 885.26348,235.09752 882.4252,226.30285   z "
     id="path7561" />
  <path
     style="fill:#663300;fill-rule:evenodd;fill-opacity:1;stroke:none;"
     d="  M 883.86432,213.23077   C 875.90915,211.47184 871.63174,203.43671 874.31012,195.28165   C 876.98849,187.08661 885.54331,181.84979 893.49849,183.56875   C 895.97698,184.12841 898.21563,185.32768 899.97456,187.08661   z "
     id="path7563" />
  <path
     style="fill:#663300;fill-rule:evenodd;fill-opacity:1;stroke:none;"
     d="  M 884.74379,186.20715   C 886.86251,178.3719 895.13749,174.53422 903.17262,177.61236   C 911.20775,180.65051 915.96487,189.52514 913.84615,197.32041   C 913.16657,199.79891 911.84737,201.99758 910.00848,203.63658   z "
     id="path7565" />
  <path
     style="fill:#996633;fill-rule:evenodd;fill-opacity:1;stroke:none;"
     d="  M 900.85403,207.0745   C 893.33858,210.07268 885.26348,205.83525 882.86493,197.60024   C 880.46638,189.32526 884.62386,180.17081 892.17929,177.13265   C 894.53786,176.17323 897.05633,175.93337 899.49485,176.37311   z "
     id="path7567" />
  <path
     style="fill:#996633;fill-rule:evenodd;fill-opacity:1;stroke:none;"
     d="  M 893.93822,192.04361   C 891.6596,183.72865 896.29679,175.8934 904.29194,174.53422   C 912.2871,173.17505 920.64204,178.81163 922.92065,187.12659   C 924.39976,192.52332 922.96063,198 919.12296,201.43792   z "
     id="path7569" />
  <path
     style="fill:#996633;fill-rule:evenodd;fill-opacity:1;stroke:none;"
     d="  M 877.70806,213.99031   C 869.75288,212.23137 865.47547,204.19624 868.15385,196.04119   C 870.83222,187.84615 879.38704,182.60933 887.34222,184.32829   C 889.82071,184.88795 892.05936,186.08722 893.81829,187.84615   z "
     id="path7571" />
  <path
     style="fill:#996633;fill-rule:evenodd;fill-opacity:1;stroke:none;"
     d="  M 868.2338,198.23985   C 865.79528,186.2871 876.66869,175.09388 892.53907,173.255   C 898.89522,172.53543 905.41127,173.4149 911.04785,175.77347   z "
     id="path7573" />
  <path
     style="fill:#fbe5d6;fill-rule:evenodd;fill-opacity:1;stroke:none;"
     d="  M 899.45488,256.36463   C 900.5742,257.92368 900.17444,260.12235 898.57541,261.2017   L 840.93035,300.81769   C 839.33131,301.89703 837.17262,301.49727 836.09328,299.89824   L 828.21805,288.46517   C 827.1387,286.86614 827.53846,284.70745 829.09752,283.6281   L 886.78256,244.01211   C 888.34161,242.93277 890.5003,243.33253 891.57965,244.89158   z "
     id="path7575" />
  <path
     style="fill:#262626;fill-rule:evenodd;fill-opacity:1;stroke:none;"
     d="  M 899.45488,256.36463   C 900.5742,257.92368 900.17444,260.12235 898.57541,261.2017   L 851.08419,293.82193   C 849.52514,294.90127 847.36644,294.50151 846.2871,292.90248   L 838.41187,281.46941   C 837.33253,279.87038 837.73228,277.71169 839.29134,276.63234   L 886.78256,244.01211   C 888.34161,242.93277 890.5003,243.33253 891.57965,244.89158   z "
     id="path7577" />
  <path
     style="fill:#663300;fill-rule:evenodd;fill-opacity:1;stroke:none;"
     d="  M 926.15869,365.17868   C 928.67717,365.17868 930.75591,367.21744 930.75591,369.73592   L 930.75591,466.87704   C 930.75591,469.39552 928.67717,471.43428 926.15869,471.43428   L 907.84979,471.43428   C 905.29134,471.43428 903.25257,469.39552 903.25257,466.87704   L 903.25257,369.73592   C 903.25257,367.21744 905.29134,365.17868 907.84979,365.17868   z "
     id="path7579" />
  <path
     style="fill:#262626;fill-rule:evenodd;fill-opacity:1;stroke:none;"
     d="  M 925.75893,365.05875   C 928.27741,365.05875 930.35615,367.13749 930.35615,369.65597   L 930.35615,454.44458   C 930.35615,456.96305 928.27741,459.00182 925.75893,459.00182   L 907.45003,459.00182   C 904.89158,459.00182 902.85282,456.96305 902.85282,454.44458   L 902.85282,369.65597   C 902.85282,367.13749 904.89158,365.05875 907.45003,365.05875   z "
     id="path7581" />
  <path
     style="fill:#663300;fill-rule:evenodd;fill-opacity:1;stroke:none;"
     d="  M 959.53846,356.90369   C 961.93701,356.0642 964.53543,357.34343 965.37492,359.74197   L 997.15566,451.52635   C 997.95518,453.88492 996.71593,456.52332 994.31738,457.32283   L 977.00787,463.3192   C 974.60933,464.15869 972.0109,462.87947 971.17141,460.5209   L 939.39067,368.73652   C 938.55118,366.33798 939.83041,363.73955 942.22895,362.90006   z "
     id="path7583" />
  <path
     style="fill:#262626;fill-rule:evenodd;fill-opacity:1;stroke:none;"
     d="  M 959.25863,356.90369   C 961.65718,356.0642 964.29558,357.34343 965.09509,359.702   L 992.59843,439.17383   C 993.43792,441.57238 992.15869,444.17081 989.80012,445.0103   L 972.49061,451.00666   C 970.09207,451.80618 967.49364,450.56693 966.65415,448.16838   L 939.15082,368.69655   C 938.31133,366.33798 939.59055,363.69958 941.94912,362.90006   z "
     id="path7585" />
  <path
     style="fill:#fbe5d6;fill-rule:evenodd;fill-opacity:1;stroke:none;"
     d="  M 875.62932,256.04482   C 874.19019,249.76863 878.06784,243.49243 884.34403,242.01333   L 929.71654,231.37977   C 935.99273,229.90067 942.26893,233.77832 943.74803,240.05451   L 968.45306,345.27075   C 969.93216,351.54694 966.01454,357.82314 959.77832,359.30224   L 914.36584,369.97577   C 908.08964,371.4149 901.81345,367.53725 900.33434,361.26105   z "
     id="path7587" />
  <path
     style="fill:#f2f2f2;fill-rule:evenodd;fill-opacity:1;stroke:none;"
     d="  M 884.34403,242.01333   L 889.62084,240.77408   L 910.92792,254.00606   L 923.88007,233.09873   L 923.44034,232.8189   L 929.71654,231.37977   C 935.99273,229.90067 942.26893,233.77832 943.74803,240.05451   L 968.45306,345.27075   C 969.93216,351.54694 966.01454,357.82314 959.77832,359.30224   L 914.36584,369.97577   C 908.08964,371.4149 901.81345,367.53725 900.33434,361.26105   L 875.62932,256.04482   C 874.19019,249.76863 878.06784,243.49243 884.34403,242.01333   z "
     id="path7589" />
  <path
     style="fill:#ffffff;fill-rule:evenodd;fill-opacity:1;stroke:none;"
     d="  M 907.76984,250.36826   L 912.447,249.28892   L 939.39067,364.09933   L 934.71351,365.17868   z "
     id="path7591" />
  <path
     style="fill:#262626;fill-rule:evenodd;fill-opacity:1;stroke:none;"
     d="  M 897.73592,350.18776   C 897.17626,347.70927 898.69534,345.23077 901.17383,344.63113   L 960.298,330.75954   C 962.7765,330.19988 965.255,331.71896 965.85463,334.19746   L 970.05209,352.14658   C 970.65173,354.62508 969.09267,357.10357 966.61417,357.70321   L 907.49001,371.5748   C 905.01151,372.17444 902.53301,370.61538 901.97335,368.13689   z "
     id="path7593" />
  <path
     style="fill:#0d0d0d;fill-rule:evenodd;fill-opacity:1;stroke:none;"
     d="  M 896.7765,344.67111   C 896.6166,343.95154 897.05633,343.23198 897.77589,343.07208   L 962.29679,327.92126   C 963.01635,327.76136 963.73592,328.20109 963.9358,328.92065   L 965.17505,334.15748   C 965.33495,334.87704 964.89522,335.59661 964.13568,335.79649   L 899.65475,350.9473   C 898.93519,351.10721 898.17565,350.66747 898.01575,349.90793   z "
     id="path7595" />
  <path
     style="fill:#bf9000;fill-rule:evenodd;fill-opacity:1;stroke:none;"
     d="  M 923.12053,338.51484   C 922.92065,337.79528 923.40036,337.03574 924.11993,336.87583   L 935.99273,334.07753   C 936.7123,333.91763 937.43186,334.35736 937.59176,335.1169   L 938.83101,340.35373   C 938.99091,341.07329 938.55118,341.79285 937.83162,341.95276   L 925.95881,344.75106   C 925.23925,344.91096 924.51969,344.47123 924.35978,343.75167   z "
     id="path7597" />
  <path
     style="fill:none;stroke:#ffd966;stroke-width:1.3192005px;stroke-linecap:butt;stroke-linejoin:miter;stroke-miterlimit:8;stroke-dasharray:none;stroke-opacity:1;"
     d="  M 923.12053,338.51484   C 922.92065,337.79528 923.40036,337.03574 924.11993,336.87583   L 935.99273,334.07753   C 936.7123,333.91763 937.43186,334.35736 937.59176,335.1169   L 938.83101,340.35373   C 938.99091,341.07329 938.55118,341.79285 937.83162,341.95276   L 925.95881,344.75106   C 925.23925,344.91096 924.51969,344.47123 924.35978,343.75167   z "
     id="path7599" />
  <path
     style="fill:#262626;fill-rule:evenodd;fill-opacity:1;stroke:none;"
     d="  M 928.91702,231.53967   L 929.71654,231.37977   C 935.99273,229.90067 942.26893,233.77832 943.74803,240.05451   L 968.45306,345.27075   L 968.49303,347.06965   L 968.49303,347.06965   L 973.68988,359.82193   C 969.41248,361.58086 965.13507,363.29982 960.85766,365.01878   C 959.09873,365.73834 957.17989,365.65839 955.58086,364.9788   L 954.14173,364.01938   L 953.98183,364.05936   L 949.54452,361.94064   L 949.46457,361.74076   L 948.98486,361.82071   L 949.34464,361.58086   L 949.34464,361.46093   L 948.94488,360.30164   L 949.86432,358.3828   L 949.9043,358.14294   L 924.67959,250.76802   L 925.91884,248.24955   C 928.39733,244.3719 929.55663,240.01454 929.43671,235.69715   z  M 884.34403,242.01333   L 885.26348,241.81345   L 886.18292,244.65173   C 887.90188,248.60933 890.82011,252.16717 894.73773,254.72562   L 898.37553,257.7238   L 923.40036,364.37916   L 923.64022,364.73895   L 925.11932,365.89824   L 925.27922,366.97759   L 925.43913,367.17747   L 925.83889,367.25742   L 925.3192,367.37735   L 925.35918,367.6172   L 922.28104,371.53483   L 921.56148,371.61478   L 920.64204,373.17383   C 919.52271,374.53301 917.84373,375.41248 915.96487,375.57238   C 911.36766,375.93216 906.77044,376.25197 902.13325,376.61175   L 901.09388,362.90006   L 900.33434,361.26105   L 875.62932,256.04482   C 874.19019,249.76863 878.06784,243.49243 884.34403,242.01333   z "
     id="path7601" />
  <path
     style="fill:#8497b0;fill-rule:evenodd;fill-opacity:1;stroke:none;"
     d="  M 906.57056,252.80678   L 914.36584,250.9679   C 915.44518,250.72804 916.52453,251.40763 916.76439,252.48698   L 929.55663,306.85403   C 929.67656,307.41369 929.55663,307.93337 929.31678,308.37311   L 929.1169,308.49303   L 928.99697,309.13265   L 925.87886,314.16959   C 925.43913,314.88916 924.55966,315.08904 923.8401,314.6493   L 918.80315,311.53119   C 918.44337,311.33131 918.24349,310.97153 918.12356,310.61175   L 918.24349,310.13204   L 917.84373,309.61236   L 905.09146,255.20533   C 904.85161,254.12598 905.49122,253.04664 906.57056,252.80678   z "
     id="path7603" />
  <path
     style="fill:#8497b0;fill-rule:evenodd;fill-opacity:1;stroke:none;"
     d="  M 913.6063,247.21018   L 917.32405,249.48879   C 918.24349,250.08843 918.52332,251.32768 917.96366,252.24712   L 913.72623,259.043   C 913.16657,260.00242 911.92732,260.28225 910.9679,259.72259   L 904.17202,255.48516   C 903.2126,254.88552 902.93277,253.68625 903.5324,252.72683   L 905.81102,249.00909   L 908.92913,250.9679   C 909.84858,251.52756 911.08783,251.24773 911.68746,250.28831   z "
     id="path7605" />
  <path
     style="fill:#d9d9d9;fill-rule:evenodd;fill-opacity:1;stroke:none;"
     d="  M 892.13931,237.77589   L 909.88855,248.76923   L 920.80194,231.13992   L 924.83949,233.61841   L 911.2877,255.44518   L 889.50091,241.97335   z "
     id="path7607" />
  <path
     style="fill:#fbe5d6;fill-rule:evenodd;fill-opacity:1;stroke:none;"
     d="  M 927.91763,263.20048   C 928.957,264.79952 928.43731,266.95821 926.83828,267.9576   L 867.39431,304.89522   C 865.79528,305.93459 863.63658,305.4149 862.63719,303.77589   L 855.28165,291.98304   C 854.28225,290.34403 854.76196,288.22532 856.40097,287.18595   L 915.80497,250.24833   C 917.44397,249.24894 919.60267,249.76863 920.60206,251.36766   z "
     id="path7609" />
  <path
     style="fill:#262626;fill-rule:evenodd;fill-opacity:1;stroke:none;"
     d="  M 927.91763,263.20048   C 928.957,264.79952 928.43731,266.95821 926.83828,267.9576   L 876.06905,299.53846   C 874.43004,300.53786 872.27135,300.05815 871.27196,298.41914   L 863.91641,286.62629   C 862.91702,284.98728 863.39673,282.82859 865.03574,281.82919   L 915.80497,250.24833   C 917.44397,249.24894 919.60267,249.76863 920.60206,251.36766   z "
     id="path7611" />
  <path
     style="fill:#bfbfbf;fill-rule:evenodd;fill-opacity:1;stroke:none;"
     d="  M 362.66021,345.23077   C 362.66021,336.39612 369.81587,329.24046 378.61054,329.24046   L 758.70018,329.24046   C 767.53483,329.24046 774.69049,336.39612 774.69049,345.23077   L 774.69049,409.11205   C 774.69049,417.9467 767.53483,425.06239 758.70018,425.06239   L 378.61054,425.06239   C 369.81587,425.06239 362.66021,417.9467 362.66021,409.11205   z "
     id="path7613" />
  <path
     style="fill:#000000;fill-rule:evenodd;fill-opacity:1;stroke:none;"
     d="  M 380.76923,358.90248   C 380.76923,354.10539 384.64688,350.18776 389.48395,350.18776   L 747.38704,350.18776   C 752.22411,350.18776 756.10176,354.10539 756.10176,358.90248   L 756.10176,393.76136   C 756.10176,398.59843 752.22411,402.51605 747.38704,402.51605   L 389.48395,402.51605   C 384.64688,402.51605 380.76923,398.59843 380.76923,393.76136   z "
     id="path7615" />
  <path
     style="fill:none;stroke:#f2f2f2;stroke-width:1.3192005px;stroke-linecap:butt;stroke-linejoin:miter;stroke-miterlimit:8;stroke-dasharray:none;stroke-opacity:1;"
     d="  M 380.76923,358.90248   C 380.76923,354.10539 384.64688,350.18776 389.48395,350.18776   L 747.38704,350.18776   C 752.22411,350.18776 756.10176,354.10539 756.10176,358.90248   L 756.10176,393.76136   C 756.10176,398.59843 752.22411,402.51605 747.38704,402.51605   L 389.48395,402.51605   C 384.64688,402.51605 380.76923,398.59843 380.76923,393.76136   z "
     id="path7617" />
  <path
     style="fill:#d9d9d9;fill-rule:evenodd;fill-opacity:1;stroke:none;"
     d="  M 797.07692,325.52271   C 797.07692,322.92429 799.15566,320.84555 801.75409,320.84555   L 820.50273,320.84555   C 823.10115,320.84555 825.21987,322.92429 825.21987,325.52271   L 825.21987,466.1175   C 825.21987,468.71593 823.10115,470.83465 820.50273,470.83465   L 801.75409,470.83465   C 799.15566,470.83465 797.07692,468.71593 797.07692,466.1175   z "
     id="path7619" />
  <path
     style="fill:#bfbfbf;fill-rule:evenodd;fill-opacity:1;stroke:none;"
     d="  M 787.16293,299.09873   C 788.28225,297.13992 790.76075,296.5003 792.71956,297.61962   L 853.80254,332.87826   C 855.72138,333.99758 856.40097,336.47608 855.28165,338.43489   L 847.08661,352.62629   C 845.96729,354.5851 843.48879,355.22471 841.52998,354.10539   L 780.447,318.84676   C 778.52816,317.72744 777.84858,315.20896 778.9679,313.29013   z "
     id="path7621" />
  <path
     style="fill:#ff5050;fill-rule:evenodd;fill-opacity:1;stroke:none;"
     d="  M 812.82738,286.50636   C 813.9467,284.58752 816.38522,283.94791 818.26408,285.02726   L 853.08298,305.13507   C 855.00182,306.25439 855.64143,308.65294 854.56208,310.57177   L 846.6069,324.36342   C 845.48758,326.28225 843.04906,326.92187 841.1702,325.80254   L 806.3513,305.73471   C 804.43247,304.61538 803.79285,302.17686 804.8722,300.298   z "
     id="path7623" />
  <path
     style="fill:#f2f2f2;fill-rule:evenodd;fill-opacity:1;stroke:none;"
     d="  M 799.07571,296.90006   C 799.27559,296.5003 799.7553,296.38038 800.15506,296.58025   L 851.52392,326.24228   C 851.92368,326.48213 852.04361,326.96184 851.80376,327.3616   L 850.20472,330.11993   C 850.00485,330.51969 849.52514,330.63961 849.12538,330.39976   L 797.75651,300.73773   C 797.35675,300.53786 797.23683,300.05815 797.47668,299.65839   z "
     id="path7625" />
  <path
     style="fill:#404040;fill-rule:evenodd;fill-opacity:1;stroke:none;"
     d="  M 362.64022,363.71956   L 362.64022,373.5536   L 357.74319,375.19261   C 348.149,379.50999 341.41308,389.62386 341.41308,401.43671   C 341.41308,411.25076 346.09025,419.9255 353.20594,425.0424   L 356.7238,427.08116   L 356.7238,437.69473   L 353.56572,436.65536   C 340.69352,430.83889 331.65899,417.26711 331.65899,401.43671   C 331.65899,382.94791 343.95154,367.53725 360.30164,363.97941   z "
     id="path7627" />
  <path
     style="fill:#404040;fill-rule:evenodd;fill-opacity:1;stroke:none;"
     d="  M 362.98001,379.78982   L 362.98001,389.62386   L 358.08298,391.24288   C 348.48879,395.56027 341.75288,405.69412 341.75288,417.48698   C 341.75288,427.32102 346.43004,435.99576 353.54573,441.11266   L 357.0636,443.15142   L 357.0636,453.76499   L 353.88552,452.70563   C 341.01333,446.90915 331.9788,433.31738 331.9788,417.48698   C 331.9788,399.01817 344.27135,383.60751 360.62144,380.02968   z "
     id="path7629" />
  <text
     xml:space="preserve"
     style="font-size:63.937500px;font-style:normal;font-variant:normal;font-weight:400;font-stretch:Normal;line-height:125.000000%;letter-spacing:0px;word-spacing:0px;fill:#000000;fill-opacity:1;stroke:none;font-family:Corbel;text-align:start;text-anchor:start;"
     transform="matrix(1.000000,-0.000000,0.000000,1.000000,406.716357,324.312100)"
     x="0.000000"
     y="0.000000"
     id="text7635"><tspan
       sodipodi:role="line"
       x="0.000000"
       y="0.000000"
       id="tspan7633"><tspan
         dx="0.000000"
         dy="0.000000"
         style="fill:#F2F2F2;font-size:63.937500px;font-style:normal;font-variant:normal;font-weight:400;font-stretch:Normal;font-family:Corbel;"
         id="tspan7631">Justin Chong</tspan></tspan></text>
</svg>
