<?xml version="1.0" encoding="UTF-8" standalone="no"?>
<svg
   xmlns:dc="http://purl.org/dc/elements/1.1/"
   xmlns:cc="http://creativecommons.org/ns#"
   xmlns:rdf="http://www.w3.org/1999/02/22-rdf-syntax-ns#"
   xmlns:svg="http://www.w3.org/2000/svg"
   xmlns="http://www.w3.org/2000/svg"
   xmlns:sodipodi="http://sodipodi.sourceforge.net/DTD/sodipodi-0.dtd"
   xmlns:inkscape="http://www.inkscape.org/namespaces/inkscape"
   version="1.0"
   width="338.79001mm"
   height="190.2mm"
   id="svg9581"
   sodipodi:docname="Slide8.svg"
   inkscape:version="0.92.3 (2405546, 2018-03-11)">
  <metadata
     id="metadata9585">
    <rdf:RDF>
      <cc:Work
         rdf:about="">
        <dc:format>image/svg+xml</dc:format>
        <dc:type
           rdf:resource="http://purl.org/dc/dcmitype/StillImage" />
        <dc:title></dc:title>
      </cc:Work>
    </rdf:RDF>
  </metadata>
  <sodipodi:namedview
     pagecolor="#ffffff"
     bordercolor="#666666"
     borderopacity="1"
     objecttolerance="10"
     gridtolerance="10"
     guidetolerance="10"
     inkscape:pageopacity="0"
     inkscape:pageshadow="2"
     inkscape:window-width="716"
     inkscape:window-height="480"
     id="namedview9583"
     showgrid="false"
     inkscape:zoom="0.22179422"
     inkscape:cx="640.23309"
     inkscape:cy="359.43307"
     inkscape:window-x="0"
     inkscape:window-y="0"
     inkscape:window-maximized="0"
     inkscape:current-layer="svg9581" />
  <defs
     id="defs9483">
    <pattern
       id="EMFhbasepattern"
       patternUnits="userSpaceOnUse"
       width="6"
       height="6"
       x="0"
       y="0" />
  </defs>
  <text
     xml:space="preserve"
     style="font-size:63.937500px;font-style:normal;font-variant:normal;font-weight:400;font-stretch:Normal;line-height:125.000000%;letter-spacing:0px;word-spacing:0px;fill:#000000;fill-opacity:1;stroke:none;font-family:Corbel;text-align:start;text-anchor:start;"
     transform="matrix(1.000000,-0.000000,0.000000,1.000000,409.381187,322.313311)"
     x="0.000000"
     y="0.000000"
     id="text9491"><tspan
       sodipodi:role="line"
       x="0.000000"
       y="0.000000"
       id="tspan9489"><tspan
         dx="0.000000"
         dy="0.000000"
         style="fill:#D9D9D9;font-size:63.937500px;font-style:normal;font-variant:normal;font-weight:400;font-stretch:Normal;font-family:Corbel;"
         id="tspan9487">Justin Chong</tspan></tspan></text>
  <path
     style="fill:#7f7f7f;fill-rule:evenodd;fill-opacity:1;stroke:none;"
     d="  M 356.74379,427.26105   C 356.74379,422.46396 360.62144,418.54634 365.45851,418.54634   L 797.99637,418.54634   C 802.83343,418.54634 806.71108,422.46396 806.71108,427.26105   L 806.71108,462.1599   C 806.71108,466.957 802.83343,470.87462 797.99637,470.87462   L 365.45851,470.87462   C 360.62144,470.87462 356.74379,466.957 356.74379,462.1599   z "
     id="path9493" />
  <path
     style="fill:#d9d9d9;fill-rule:evenodd;fill-opacity:1;stroke:none;"
     d="  M 370.65536,337.87523   C 370.65536,328.48092 378.29073,320.84555 387.68504,320.84555   L 772.01211,320.84555   C 781.4464,320.84555 789.08177,328.48092 789.08177,337.87523   L 789.08177,406.03392   C 789.08177,415.4682 781.4464,423.0636 772.01211,423.0636   L 387.68504,423.0636   C 378.29073,423.0636 370.65536,415.4682 370.65536,406.03392   z "
     id="path9495" />
  <path
     style="fill:#996633;fill-rule:evenodd;fill-opacity:1;stroke:none;"
     d="  M 868.51363,208.59358   C 868.43368,203.03695 865.39552,201.35796 861.7977,204.79588   C 858.1599,208.19382 855.32162,215.46941 855.40157,221.02604   C 855.48153,223.94428 856.36099,225.94306 857.8401,226.46275   z "
     id="path9497" />
  <path
     style="fill:#663300;fill-rule:evenodd;fill-opacity:1;stroke:none;"
     d="  M 871.0321,208.19382   C 870.27256,199.39915 867.43428,196.04119 864.67595,200.6384   C 861.9576,205.23561 860.31859,216.06905 861.07813,224.86372   C 861.55784,230.66021 862.99697,234.33798 864.83586,234.4579   z "
     id="path9499" />
  <path
     style="fill:#663300;fill-rule:evenodd;fill-opacity:1;stroke:none;"
     d="  M 887.02241,193.8825   C 884.10418,186.00727 886.26287,182.08964 891.8195,185.20775   C 897.33616,188.28589 904.17202,197.20048 907.05027,205.07571   C 908.76923,209.79285 908.76923,213.27075 907.05027,214.43004   z "
     id="path9501" />
  <path
     style="fill:#996633;fill-rule:evenodd;fill-opacity:1;stroke:none;"
     d="  M 889.54088,202.23743   C 885.58328,194.16233 885.78316,189.56511 889.94064,192.00363   C 894.1381,194.44216 900.69412,202.957 904.65173,211.07208   C 907.41005,216.70866 908.24955,220.86614 906.81042,221.78558   z "
     id="path9503" />
  <path
     style="fill:#fbe5d6;fill-rule:evenodd;fill-opacity:1;stroke:none;"
     d="  M 859.83889,216.62871   C 856.80073,207.87402 861.43792,198.31981 870.19261,195.28165   L 878.6275,192.36342   C 887.38219,189.32526 896.9364,193.96245 899.97456,202.71714   L 904.21199,214.90975   C 907.21018,223.66445 902.57299,233.21866 893.81829,236.25681   L 885.3834,239.17505   C 876.62871,242.2132 867.0745,237.57601 864.07632,228.82132   z "
     id="path9505" />
  <path
     style="fill:#663300;fill-rule:evenodd;fill-opacity:1;stroke:none;"
     d="  M 865.19564,215.70927   C 857.24046,214.15021 852.76317,206.23501 855.28165,198   C 857.76015,189.76499 866.23501,184.32829 874.19019,185.88734   C 876.70866,186.36705 878.9473,187.56632 880.74621,189.28528   z "
     id="path9507" />
  <path
     style="fill:#663300;fill-rule:evenodd;fill-opacity:1;stroke:none;"
     d="  M 865.51545,188.72562   C 867.47426,180.85039 875.62932,176.81284 883.7444,179.6911   C 891.8195,182.60933 896.81647,191.32405 894.85766,199.19927   C 894.21805,201.67777 892.93882,203.87644 891.13992,205.5954   z "
     id="path9509" />
  <path
     style="fill:#996633;fill-rule:evenodd;fill-opacity:1;stroke:none;"
     d="  M 882.06541,209.19322   C 874.58995,212.39128 866.47486,208.31375 863.87644,200.11872   C 861.31799,191.88371 865.27559,182.6493 872.71108,179.49122   C 875.06965,178.45185 877.58813,178.17202 880.06663,178.57177   z "
     id="path9511" />
  <path
     style="fill:#996633;fill-rule:evenodd;fill-opacity:1;stroke:none;"
     d="  M 874.8298,194.32223   C 872.39128,186.08722 876.82859,178.13204 884.82374,176.61296   C 892.77892,175.09388 901.21381,180.53059 903.65233,188.80557   C 905.29134,194.16233 903.93216,199.67898 900.21442,203.19685   z "
     id="path9513" />
  <path
     style="fill:#996633;fill-rule:evenodd;fill-opacity:1;stroke:none;"
     d="  M 859.03937,216.58873   C 851.08419,215.06965 846.64688,207.11448 849.12538,198.87947   C 851.60388,190.64446 860.07874,185.20775 868.03392,186.76681   C 870.55239,187.28649 872.83101,188.44579 874.62992,190.16475   z "
     id="path9515" />
  <path
     style="fill:#996633;fill-rule:evenodd;fill-opacity:1;stroke:none;"
     d="  M 849.24531,201.07813   C 846.56693,189.16535 857.20048,177.77226 873.03089,175.61357   C 879.34706,174.7341 885.86311,175.49364 891.57965,177.69231   z "
     id="path9517" />
  <path
     style="fill:#fbe5d6;fill-rule:evenodd;fill-opacity:1;stroke:none;"
     d="  M 889.50091,253.64627   C 890.78013,255.04543 890.70018,257.24409 889.26105,258.52332   L 837.69231,305.77468   C 836.25318,307.09388 834.05451,306.97396 832.77529,305.5748   L 823.38098,295.34101   C 822.10176,293.90188 822.18171,291.70321 823.62084,290.42399   L 875.18958,243.17262   C 876.58873,241.85342 878.7874,241.97335 880.1066,243.3725   z "
     id="path9519" />
  <path
     style="fill:#262626;fill-rule:evenodd;fill-opacity:1;stroke:none;"
     d="  M 889.50091,253.64627   C 890.78013,255.04543 890.70018,257.24409 889.26105,258.52332   L 846.80678,297.45972   C 845.36766,298.73895 843.16899,298.65899 841.88976,297.21987   L 832.49546,286.98607   C 831.21623,285.54694 831.29618,283.34827 832.73531,282.06905   L 875.18958,243.17262   C 876.58873,241.85342 878.7874,241.97335 880.1066,243.3725   z "
     id="path9521" />
  <path
     style="fill:#663300;fill-rule:evenodd;fill-opacity:1;stroke:none;"
     d="  M 922.56087,364.65899   C 925.07935,364.49909 927.23804,366.37795 927.43792,368.9364   L 933.99394,465.7977   C 934.15385,468.35615 932.27498,470.51484 929.75651,470.71472   L 911.44761,471.95397   C 908.92913,472.11387 906.73047,470.19503 906.57056,467.67656   L 900.01454,370.77529   C 899.81466,368.25681 901.73349,366.05815 904.25197,365.89824   z "
     id="path9523" />
  <path
     style="fill:#262626;fill-rule:evenodd;fill-opacity:1;stroke:none;"
     d="  M 922.12114,364.57904   C 924.67959,364.41914 926.83828,366.33798 927.03816,368.85645   L 932.75469,453.44518   C 932.9146,455.96366 931.03574,458.16233 928.51726,458.32223   L 910.20836,459.56148   C 907.68988,459.72138 905.49122,457.80254 905.33131,455.28407   L 899.61478,370.69534   C 899.4149,368.17686 901.33374,366.01817 903.85221,365.81829   z "
     id="path9525" />
  <path
     style="fill:#663300;fill-rule:evenodd;fill-opacity:1;stroke:none;"
     d="  M 957.17989,353.18595   C 959.37856,351.98667 962.17686,352.78619 963.41611,354.98486   L 1010.5875,439.85342   C 1011.8268,442.09207 1011.0273,444.85039 1008.8286,446.08964   L 992.7983,455.00424   C 990.59964,456.24349 987.80133,455.44397 986.60206,453.20533   L 939.39067,368.33677   C 938.15142,366.1381 938.95094,363.33979 941.14961,362.10055   z "
     id="path9527" />
  <path
     style="fill:#262626;fill-rule:evenodd;fill-opacity:1;stroke:none;"
     d="  M 956.94004,353.22592   C 959.1387,351.98667 961.93701,352.78619 963.13628,355.02483   L 1003.9915,428.5003   C 1005.2308,430.69897 1004.4313,433.49727 1002.2326,434.73652   L 986.2023,443.61114   C 984.00363,444.85039 981.20533,444.05088 980.00606,441.85221   L 939.11084,368.37674   C 937.91157,366.1381 938.71108,363.37977 940.90975,362.14052   z "
     id="path9529" />
  <path
     style="fill:#fbe5d6;fill-rule:evenodd;fill-opacity:1;stroke:none;"
     d="  M 860.19867,260.24228   C 858.19988,254.08601 861.55784,247.52998 867.67414,245.53119   L 912.00727,231.09994   C 918.16354,229.10115 924.71956,232.45912 926.71835,238.57541   L 960.17807,341.3931   C 962.17686,347.50939 958.8189,354.06541 952.7026,356.0642   L 908.3295,370.49546   C 902.2132,372.49425 895.6172,369.13628 893.65839,363.01999   z "
     id="path9531" />
  <path
     style="fill:#f2f2f2;fill-rule:evenodd;fill-opacity:1;stroke:none;"
     d="  M 867.67414,245.53119   L 872.83101,243.85221   L 895.21744,255.24531   L 906.37068,233.33858   L 905.89098,233.09873   L 912.00727,231.09994   C 918.16354,229.10115 924.71956,232.45912 926.71835,238.57541   L 960.17807,341.3931   C 962.17686,347.50939 958.8189,354.06541 952.7026,356.0642   L 908.3295,370.49546   C 902.2132,372.49425 895.6172,369.13628 893.65839,363.01999   L 860.19867,260.24228   C 858.19988,254.08601 861.55784,247.52998 867.67414,245.53119   z "
     id="path9533" />
  <path
     style="fill:#ffffff;fill-rule:evenodd;fill-opacity:1;stroke:none;"
     d="  M 891.73955,251.88734   L 896.29679,250.40824   L 932.79467,362.54028   L 928.23743,364.01938   z "
     id="path9535" />
  <path
     style="fill:#262626;fill-rule:evenodd;fill-opacity:1;stroke:none;"
     d="  M 890.10055,352.18655   C 889.34101,349.74803 890.66021,347.14961 893.05875,346.39007   L 950.82374,327.60145   C 953.26227,326.80194 955.86069,328.12114 956.66021,330.55966   L 962.33677,348.06905   C 963.13628,350.50757 961.81708,353.106 959.37856,353.90551   L 901.61357,372.69412   C 899.21502,373.45366 896.6166,372.13446 895.81708,369.73592   z "
     id="path9537" />
  <path
     style="fill:#0d0d0d;fill-rule:evenodd;fill-opacity:1;stroke:none;"
     d="  M 888.70139,346.78982   C 888.46154,346.07026 888.8613,345.31072 889.58086,345.07087   L 952.58268,324.56329   C 953.30224,324.36342 954.06178,324.7232 954.26166,325.44276   L 955.94064,330.55966   C 956.1805,331.27922 955.78074,332.03876 955.10115,332.27862   L 892.05936,352.78619   C 891.37977,352.98607 890.62023,352.62629 890.38038,351.90672   z "
     id="path9539" />
  <path
     style="fill:#bf9000;fill-rule:evenodd;fill-opacity:1;stroke:none;"
     d="  M 914.40581,338.39491   C 914.16596,337.71532 914.56572,336.95578 915.28528,336.71593   L 926.87826,332.95821   C 927.59782,332.71835 928.35736,333.11811 928.55724,333.7977   L 930.23622,338.9146   C 930.47608,339.63416 930.07632,340.3937 929.39673,340.63356   L 917.76378,344.39128   C 917.08419,344.63113 916.32465,344.23137 916.0848,343.55179   z "
     id="path9541" />
  <path
     style="fill:none;stroke:#ffd966;stroke-width:1.3192005px;stroke-linecap:butt;stroke-linejoin:miter;stroke-miterlimit:8;stroke-dasharray:none;stroke-opacity:1;"
     d="  M 914.40581,338.39491   C 914.16596,337.71532 914.56572,336.95578 915.28528,336.71593   L 926.87826,332.95821   C 927.59782,332.71835 928.35736,333.11811 928.55724,333.7977   L 930.23622,338.9146   C 930.47608,339.63416 930.07632,340.3937 929.39673,340.63356   L 917.76378,344.39128   C 917.08419,344.63113 916.32465,344.23137 916.0848,343.55179   z "
     id="path9543" />
  <path
     style="fill:#262626;fill-rule:evenodd;fill-opacity:1;stroke:none;"
     d="  M 911.20775,231.33979   L 912.00727,231.09994   C 918.16354,229.10115 924.71956,232.45912 926.71835,238.57541   L 960.17807,341.3931   L 960.37795,343.15203   L 960.37795,343.15203   L 966.5742,355.42459   C 962.45669,357.50333 958.33919,359.58207 954.26166,361.66081   C 952.5427,362.54028 950.66384,362.62023 948.98486,362.06057   L 947.50575,361.26105   L 947.34585,361.30103   L 942.70866,359.5421   L 942.62871,359.34222   L 942.149,359.50212   L 942.46881,359.22229   L 942.50878,359.06239   L 941.9891,357.94306   L 942.74864,355.98425   L 942.74864,355.7444   L 908.6493,250.88795   L 909.60872,248.24955   C 911.80739,244.17202 912.56693,239.73471 912.08722,235.41732   z  M 867.67414,245.53119   L 868.59358,245.25136   L 869.75288,247.96972   C 871.79164,251.80739 874.9897,255.0854 879.10721,257.32405   L 882.98486,260.00242   L 916.88431,364.17929   L 917.16414,364.49909   L 918.7232,365.53846   L 918.96305,366.61781   L 919.12296,366.81769   L 919.56269,366.85766   L 919.043,367.01757   L 919.08298,367.25742   L 916.36463,371.37492   L 915.64506,371.53483   L 914.88552,373.17383   C 913.84615,374.61296 912.2871,375.65233 910.40824,375.93216   C 905.851,376.6917 901.29376,377.41127 896.73652,378.17081   L 894.53786,364.57904   L 893.65839,363.01999   L 860.19867,260.24228   C 858.19988,254.08601 861.55784,247.52998 867.67414,245.53119   z "
     id="path9545" />
  <path
     style="fill:#8497b0;fill-rule:evenodd;fill-opacity:1;stroke:none;"
     d="  M 890.74016,254.40581   L 898.37553,251.92732   C 899.4149,251.60751 900.53422,252.16717 900.894,253.20654   L 918.16354,306.33434   C 918.36342,306.85403 918.28346,307.41369 918.04361,307.85342   L 917.88371,308.01333   L 917.84373,308.65294   L 915.12538,313.96972   C 914.7656,314.68928 913.88613,314.96911 913.16657,314.60933   L 907.84979,311.93095   C 907.49001,311.73107 907.25015,311.41127 907.13022,311.05148   L 907.1702,310.5318   L 906.77044,310.05209   L 889.46093,256.92429   C 889.14113,255.88492 889.70079,254.7656 890.74016,254.40581   z "
     id="path9547" />
  <path
     style="fill:#8497b0;fill-rule:evenodd;fill-opacity:1;stroke:none;"
     d="  M 897.29618,248.24955   L 901.17383,250.20836   C 902.13325,250.72804 902.53301,251.92732 902.0533,252.88674   L 898.41551,260.0424   C 897.89582,261.04179 896.69655,261.40157 895.69715,260.92187   L 888.58147,257.28407   C 887.58207,256.76439 887.18231,255.56511 887.702,254.60569   L 889.66081,250.72804   L 892.93882,252.36705   C 893.93822,252.88674 895.13749,252.48698 895.6172,251.48758   z "
     id="path9549" />
  <path
     style="fill:#d9d9d9;fill-rule:evenodd;fill-opacity:1;stroke:none;"
     d="  M 875.06965,240.61417   L 893.69836,250.08843   L 903.09267,231.61962   L 907.3301,233.77832   L 895.65718,256.64446   L 872.83101,245.05148   z "
     id="path9551" />
  <path
     style="fill:#fbe5d6;fill-rule:evenodd;fill-opacity:1;stroke:none;"
     d="  M 916.0848,270.39612   C 917.12417,271.99515 916.72441,274.15385 915.12538,275.23319   L 857.20048,314.40945   C 855.60145,315.48879 853.44276,315.04906 852.36342,313.45003   L 844.56814,301.93701   C 843.48879,300.37795 843.92853,298.21926 845.52756,297.13992   L 903.45245,257.96366   C 905.05148,256.88431 907.21018,257.28407 908.28952,258.8831   z "
     id="path9553" />
  <path
     style="fill:#262626;fill-rule:evenodd;fill-opacity:1;stroke:none;"
     d="  M 916.0848,270.39612   C 917.12417,271.99515 916.72441,274.15385 915.12538,275.23319   L 865.5954,308.69291   C 864.03634,309.77226 861.87765,309.3725 860.7983,307.77347   L 853.00303,296.26045   C 851.92368,294.66142 852.36342,292.50273 853.92247,291.42338   L 903.45245,257.96366   C 905.05148,256.88431 907.21018,257.28407 908.28952,258.8831   z "
     id="path9555" />
  <path
     style="fill:#bfbfbf;fill-rule:evenodd;fill-opacity:1;stroke:none;"
     d="  M 362.66021,345.23077   C 362.66021,336.39612 369.81587,329.24046 378.61054,329.24046   L 758.70018,329.24046   C 767.53483,329.24046 774.69049,336.39612 774.69049,345.23077   L 774.69049,409.11205   C 774.69049,417.9467 767.53483,425.06239 758.70018,425.06239   L 378.61054,425.06239   C 369.81587,425.06239 362.66021,417.9467 362.66021,409.11205   z "
     id="path9557" />
  <path
     style="fill:#000000;fill-rule:evenodd;fill-opacity:1;stroke:none;"
     d="  M 380.76923,358.90248   C 380.76923,354.10539 384.64688,350.18776 389.48395,350.18776   L 747.38704,350.18776   C 752.22411,350.18776 756.10176,354.10539 756.10176,358.90248   L 756.10176,393.76136   C 756.10176,398.59843 752.22411,402.51605 747.38704,402.51605   L 389.48395,402.51605   C 384.64688,402.51605 380.76923,398.59843 380.76923,393.76136   z "
     id="path9559" />
  <path
     style="fill:none;stroke:#f2f2f2;stroke-width:1.3192005px;stroke-linecap:butt;stroke-linejoin:miter;stroke-miterlimit:8;stroke-dasharray:none;stroke-opacity:1;"
     d="  M 380.76923,358.90248   C 380.76923,354.10539 384.64688,350.18776 389.48395,350.18776   L 747.38704,350.18776   C 752.22411,350.18776 756.10176,354.10539 756.10176,358.90248   L 756.10176,393.76136   C 756.10176,398.59843 752.22411,402.51605 747.38704,402.51605   L 389.48395,402.51605   C 384.64688,402.51605 380.76923,398.59843 380.76923,393.76136   z "
     id="path9561" />
  <path
     style="fill:#d9d9d9;fill-rule:evenodd;fill-opacity:1;stroke:none;"
     d="  M 797.07692,325.52271   C 797.07692,322.92429 799.15566,320.84555 801.75409,320.84555   L 820.50273,320.84555   C 823.10115,320.84555 825.21987,322.92429 825.21987,325.52271   L 825.21987,466.1175   C 825.21987,468.71593 823.10115,470.83465 820.50273,470.83465   L 801.75409,470.83465   C 799.15566,470.83465 797.07692,468.71593 797.07692,466.1175   z "
     id="path9563" />
  <path
     style="fill:#bfbfbf;fill-rule:evenodd;fill-opacity:1;stroke:none;"
     d="  M 787.16293,299.09873   C 788.28225,297.13992 790.76075,296.5003 792.71956,297.61962   L 853.80254,332.87826   C 855.72138,333.99758 856.40097,336.47608 855.28165,338.43489   L 847.08661,352.62629   C 845.96729,354.5851 843.48879,355.22471 841.52998,354.10539   L 780.447,318.84676   C 778.52816,317.72744 777.84858,315.20896 778.9679,313.29013   z "
     id="path9565" />
  <path
     style="fill:#ff5050;fill-rule:evenodd;fill-opacity:1;stroke:none;"
     d="  M 809.9891,291.42338   C 810.78861,290.0642 812.50757,289.58449 813.86675,290.38401   L 850.64446,311.61114   C 852.00363,312.41066 852.48334,314.12962 851.68383,315.48879   L 846.00727,325.36281   C 845.24773,326.72199 843.48879,327.16172 842.12962,326.40218   L 805.35191,305.13507   C 803.99273,304.37553 803.51302,302.6166 804.31254,301.25742   z "
     id="path9567" />
  <path
     style="fill:#f2f2f2;fill-rule:evenodd;fill-opacity:1;stroke:none;"
     d="  M 799.07571,296.90006   C 799.27559,296.5003 799.7553,296.38038 800.15506,296.58025   L 851.52392,326.24228   C 851.92368,326.48213 852.04361,326.96184 851.80376,327.3616   L 850.20472,330.11993   C 850.00485,330.51969 849.52514,330.63961 849.12538,330.39976   L 797.75651,300.73773   C 797.35675,300.53786 797.23683,300.05815 797.47668,299.65839   z "
     id="path9569" />
  <path
     style="fill:#404040;fill-rule:evenodd;fill-opacity:1;stroke:none;"
     d="  M 362.64022,363.71956   L 362.64022,373.5536   L 357.74319,375.19261   C 348.149,379.50999 341.41308,389.62386 341.41308,401.43671   C 341.41308,411.25076 346.09025,419.9255 353.20594,425.0424   L 356.7238,427.08116   L 356.7238,437.69473   L 353.56572,436.65536   C 340.69352,430.83889 331.65899,417.26711 331.65899,401.43671   C 331.65899,382.94791 343.95154,367.53725 360.30164,363.97941   z "
     id="path9571" />
  <path
     style="fill:#404040;fill-rule:evenodd;fill-opacity:1;stroke:none;"
     d="  M 362.98001,379.78982   L 362.98001,389.62386   L 358.08298,391.24288   C 348.48879,395.56027 341.75288,405.69412 341.75288,417.48698   C 341.75288,427.32102 346.43004,435.99576 353.54573,441.11266   L 357.0636,443.15142   L 357.0636,453.76499   L 353.88552,452.70563   C 341.01333,446.90915 331.9788,433.31738 331.9788,417.48698   C 331.9788,399.01817 344.27135,383.60751 360.62144,380.02968   z "
     id="path9573" />
  <text
     xml:space="preserve"
     style="font-size:63.937500px;font-style:normal;font-variant:normal;font-weight:400;font-stretch:Normal;line-height:125.000000%;letter-spacing:0px;word-spacing:0px;fill:#000000;fill-opacity:1;stroke:none;font-family:Corbel;text-align:start;text-anchor:start;"
     transform="matrix(1.000000,-0.000000,0.000000,1.000000,406.716357,324.312100)"
     x="0.000000"
     y="0.000000"
     id="text9579"><tspan
       sodipodi:role="line"
       x="0.000000"
       y="0.000000"
       id="tspan9577"><tspan
         dx="0.000000"
         dy="0.000000"
         style="fill:#F2F2F2;font-size:63.937500px;font-style:normal;font-variant:normal;font-weight:400;font-stretch:Normal;font-family:Corbel;"
         id="tspan9575">Justin Chong</tspan></tspan></text>
</svg>
