<?xml version="1.0" encoding="UTF-8" standalone="no"?>
<svg
   xmlns:dc="http://purl.org/dc/elements/1.1/"
   xmlns:cc="http://creativecommons.org/ns#"
   xmlns:rdf="http://www.w3.org/1999/02/22-rdf-syntax-ns#"
   xmlns:svg="http://www.w3.org/2000/svg"
   xmlns="http://www.w3.org/2000/svg"
   xmlns:sodipodi="http://sodipodi.sourceforge.net/DTD/sodipodi-0.dtd"
   xmlns:inkscape="http://www.inkscape.org/namespaces/inkscape"
   version="1.0"
   width="338.79001mm"
   height="190.2mm"
   id="svg10235"
   sodipodi:docname="Slide9.svg"
   inkscape:version="0.92.3 (2405546, 2018-03-11)">
  <metadata
     id="metadata10239">
    <rdf:RDF>
      <cc:Work
         rdf:about="">
        <dc:format>image/svg+xml</dc:format>
        <dc:type
           rdf:resource="http://purl.org/dc/dcmitype/StillImage" />
        <dc:title></dc:title>
      </cc:Work>
    </rdf:RDF>
  </metadata>
  <sodipodi:namedview
     pagecolor="#ffffff"
     bordercolor="#666666"
     borderopacity="1"
     objecttolerance="10"
     gridtolerance="10"
     guidetolerance="10"
     inkscape:pageopacity="0"
     inkscape:pageshadow="2"
     inkscape:window-width="716"
     inkscape:window-height="480"
     id="namedview10237"
     showgrid="false"
     inkscape:zoom="0.22179422"
     inkscape:cx="640.23309"
     inkscape:cy="359.43307"
     inkscape:window-x="0"
     inkscape:window-y="0"
     inkscape:window-maximized="0"
     inkscape:current-layer="svg10235" />
  <defs
     id="defs10131">
    <pattern
       id="EMFhbasepattern"
       patternUnits="userSpaceOnUse"
       width="6"
       height="6"
       x="0"
       y="0" />
  </defs>
  <text
     xml:space="preserve"
     style="font-size:63.937500px;font-style:normal;font-variant:normal;font-weight:400;font-stretch:Normal;line-height:125.000000%;letter-spacing:0px;word-spacing:0px;fill:#000000;fill-opacity:1;stroke:none;font-family:Corbel;text-align:start;text-anchor:start;"
     transform="matrix(1.000000,-0.000000,0.000000,1.000000,409.381187,322.313311)"
     x="0.000000"
     y="0.000000"
     id="text10139"><tspan
       sodipodi:role="line"
       x="0.000000"
       y="0.000000"
       id="tspan10137"><tspan
         dx="0.000000"
         dy="0.000000"
         style="fill:#D9D9D9;font-size:63.937500px;font-style:normal;font-variant:normal;font-weight:400;font-stretch:Normal;font-family:Corbel;"
         id="tspan10135">Justin Chong</tspan></tspan></text>
  <path
     style="fill:#7f7f7f;fill-rule:evenodd;fill-opacity:1;stroke:none;"
     d="  M 356.74379,427.26105   C 356.74379,422.46396 360.62144,418.54634 365.45851,418.54634   L 797.99637,418.54634   C 802.83343,418.54634 806.71108,422.46396 806.71108,427.26105   L 806.71108,462.1599   C 806.71108,466.957 802.83343,470.87462 797.99637,470.87462   L 365.45851,470.87462   C 360.62144,470.87462 356.74379,466.957 356.74379,462.1599   z "
     id="path10141" />
  <path
     style="fill:#d9d9d9;fill-rule:evenodd;fill-opacity:1;stroke:none;"
     d="  M 370.65536,337.87523   C 370.65536,328.48092 378.29073,320.84555 387.68504,320.84555   L 772.01211,320.84555   C 781.4464,320.84555 789.08177,328.48092 789.08177,337.87523   L 789.08177,406.03392   C 789.08177,415.4682 781.4464,423.0636 772.01211,423.0636   L 387.68504,423.0636   C 378.29073,423.0636 370.65536,415.4682 370.65536,406.03392   z "
     id="path10143" />
  <path
     style="fill:#996633;fill-rule:evenodd;fill-opacity:1;stroke:none;"
     d="  M 878.4676,206.51484   C 878.38764,200.95821 875.38946,199.27922 871.75167,202.67717   C 868.15385,206.11508 865.27559,213.39067 865.39552,218.9473   C 865.43549,221.86554 866.31496,223.86432 867.79406,224.38401   z "
     id="path10145" />
  <path
     style="fill:#663300;fill-rule:evenodd;fill-opacity:1;stroke:none;"
     d="  M 881.02604,206.07511   C 880.26651,197.32041 877.42823,193.92247 874.6699,198.55966   C 871.91157,203.15687 870.27256,213.99031 871.0321,222.78498   C 871.55179,228.58147 872.99091,232.25924 874.8298,232.37916   z "
     id="path10147" />
  <path
     style="fill:#663300;fill-rule:evenodd;fill-opacity:1;stroke:none;"
     d="  M 896.97638,191.80376   C 894.09812,183.92853 896.21684,180.0109 901.77347,183.12901   C 907.29013,186.20715 914.12598,195.12174 917.04422,202.99697   C 918.7232,207.71411 918.7232,211.192 917.00424,212.3513   z "
     id="path10149" />
  <path
     style="fill:#996633;fill-rule:evenodd;fill-opacity:1;stroke:none;"
     d="  M 899.53483,200.15869   C 895.57723,192.08359 895.73713,187.48637 899.93459,189.92489   C 904.09207,192.36342 910.68807,200.87826 914.60569,208.99334   C 917.36402,214.62992 918.20351,218.7874 916.76439,219.70684   z "
     id="path10151" />
  <path
     style="fill:#fbe5d6;fill-rule:evenodd;fill-opacity:1;stroke:none;"
     d="  M 869.79285,214.54997   C 866.75469,205.79528 871.39188,196.24107 880.14658,193.20291   L 888.58147,190.28468   C 897.33616,187.24652 906.89037,191.88371 909.92853,200.6384   L 914.16596,212.83101   C 917.20412,221.58571 912.56693,231.13992 903.81224,234.17807   L 895.37735,237.09631   C 886.62265,240.13446 877.06844,235.49727 874.03028,226.74258   z "
     id="path10153" />
  <path
     style="fill:#663300;fill-rule:evenodd;fill-opacity:1;stroke:none;"
     d="  M 875.14961,213.63053   C 867.19443,212.07147 862.75712,204.15627 865.23561,195.92126   C 867.71411,187.68625 876.18898,182.24955 884.14416,183.8086   C 886.66263,184.28831 888.94125,185.44761 890.74016,187.16657   z "
     id="path10155" />
  <path
     style="fill:#663300;fill-rule:evenodd;fill-opacity:1;stroke:none;"
     d="  M 875.46941,186.64688   C 877.42823,178.77165 885.58328,174.7341 893.69836,177.61236   C 901.81345,180.53059 906.77044,189.24531 904.81163,197.12053   C 904.21199,199.59903 902.93277,201.7977 901.13386,203.51666   z "
     id="path10157" />
  <path
     style="fill:#996633;fill-rule:evenodd;fill-opacity:1;stroke:none;"
     d="  M 892.01938,207.11448   C 884.58389,210.31254 876.42883,206.23501 873.83041,198.03998   C 871.27196,189.80497 875.22956,180.57056 882.70503,177.3725   C 885.0636,176.37311 887.58207,176.0533 890.02059,176.49303   z "
     id="path10159" />
  <path
     style="fill:#996633;fill-rule:evenodd;fill-opacity:1;stroke:none;"
     d="  M 884.78377,192.24349   C 882.34525,184.00848 886.82253,176.0533 894.77771,174.53422   C 902.73289,173.01514 911.20775,178.45185 913.64627,186.72683   C 915.24531,192.08359 913.92611,197.60024 910.16838,201.11811   z "
     id="path10161" />
  <path
     style="fill:#996633;fill-rule:evenodd;fill-opacity:1;stroke:none;"
     d="  M 869.03331,214.50999   C 861.03816,212.95094 856.60085,205.03574 859.07935,196.80073   C 861.59782,188.56572 870.03271,183.12901 878.02786,184.68807   C 880.54634,185.20775 882.78498,186.36705 884.58389,188.08601   z "
     id="path10163" />
  <path
     style="fill:#996633;fill-rule:evenodd;fill-opacity:1;stroke:none;"
     d="  M 859.23925,198.99939   C 856.5209,187.08661 867.15445,175.69352 882.98486,173.53483   C 889.34101,172.65536 895.85706,173.37492 901.53362,175.61357   z "
     id="path10165" />
  <path
     style="fill:#fbe5d6;fill-rule:evenodd;fill-opacity:1;stroke:none;"
     d="  M 893.65839,253.96608   C 894.89764,255.40521 894.73773,257.60388 893.25863,258.84313   L 840.29073,304.49546   C 838.81163,305.77468 836.61296,305.61478 835.37371,304.13568   L 826.29921,293.62205   C 825.05996,292.18292 825.21987,289.98425 826.65899,288.70503   L 879.66687,243.0527   C 881.106,241.81345 883.30466,241.97335 884.58389,243.41248   z "
     id="path10167" />
  <path
     style="fill:#262626;fill-rule:evenodd;fill-opacity:1;stroke:none;"
     d="  M 893.65839,253.96608   C 894.89764,255.40521 894.73773,257.60388 893.25863,258.84313   L 849.64506,296.46033   C 848.16596,297.69958 846.00727,297.53967 844.72804,296.10055   L 835.65354,285.54694   C 834.41429,284.10781 834.5742,281.90915 836.01333,280.6699   L 879.66687,243.0527   C 881.106,241.81345 883.30466,241.97335 884.58389,243.41248   z "
     id="path10169" />
  <path
     style="fill:#663300;fill-rule:evenodd;fill-opacity:1;stroke:none;"
     d="  M 922.56087,364.65899   C 925.07935,364.49909 927.23804,366.37795 927.43792,368.9364   L 933.99394,465.7977   C 934.15385,468.35615 932.27498,470.51484 929.75651,470.71472   L 911.44761,471.95397   C 908.92913,472.11387 906.73047,470.19503 906.57056,467.67656   L 900.01454,370.77529   C 899.81466,368.25681 901.73349,366.05815 904.25197,365.89824   z "
     id="path10171" />
  <path
     style="fill:#262626;fill-rule:evenodd;fill-opacity:1;stroke:none;"
     d="  M 922.12114,364.57904   C 924.67959,364.41914 926.83828,366.33798 927.03816,368.85645   L 932.75469,453.44518   C 932.9146,455.96366 931.03574,458.16233 928.51726,458.32223   L 910.20836,459.56148   C 907.68988,459.72138 905.49122,457.80254 905.33131,455.28407   L 899.61478,370.69534   C 899.4149,368.17686 901.33374,366.01817 903.85221,365.81829   z "
     id="path10173" />
  <path
     style="fill:#663300;fill-rule:evenodd;fill-opacity:1;stroke:none;"
     d="  M 958.37916,353.06602   C 960.65778,352.02665 963.41611,352.98607 964.45548,355.30466   L 1005.4706,443.33131   C 1006.51,445.64991 1005.5106,448.36826 1003.232,449.44761   L 986.64204,457.16293   C 984.32344,458.24228 981.60509,457.24288 980.52574,454.92429   L 939.55058,366.89764   C 938.47123,364.61902 939.47062,361.86069 941.78922,360.82132   z "
     id="path10175" />
  <path
     style="fill:#262626;fill-rule:evenodd;fill-opacity:1;stroke:none;"
     d="  M 958.09933,353.106   C 960.41793,352.02665 963.13628,353.02604 964.21563,355.30466   L 999.67414,431.53846   C 1000.7535,433.81708 999.75409,436.53543 997.47547,437.61478   L 980.84555,445.37008   C 978.56693,446.40945 975.84858,445.41005 974.76923,443.13144   L 939.27075,366.89764   C 938.23137,364.61902 939.23077,361.90067 941.50939,360.82132   z "
     id="path10177" />
  <path
     style="fill:#fbe5d6;fill-rule:evenodd;fill-opacity:1;stroke:none;"
     d="  M 868.03392,257.00424   C 866.39491,250.808 870.07268,244.41187 876.3089,242.73289   L 921.32162,230.66021   C 927.55784,228.98122 933.95397,232.65899 935.63295,238.89522   L 963.65597,343.31193   C 965.29497,349.50818 961.6172,355.9043 955.42096,357.58328   L 910.36826,369.65597   C 904.13204,371.33495 897.73592,367.65718 896.05694,361.42096   z "
     id="path10179" />
  <path
     style="fill:#f2f2f2;fill-rule:evenodd;fill-opacity:1;stroke:none;"
     d="  M 876.3089,242.73289   L 881.54573,241.33374   L 903.29255,253.88613   L 915.56511,232.57904   L 915.12538,232.29921   L 921.32162,230.66021   C 927.55784,228.98122 933.95397,232.65899 935.63295,238.89522   L 963.65597,343.31193   C 965.29497,349.50818 961.6172,355.9043 955.42096,357.58328   L 910.36826,369.65597   C 904.13204,371.33495 897.73592,367.65718 896.05694,361.42096   L 868.03392,257.00424   C 866.39491,250.808 870.07268,244.41187 876.3089,242.73289   z "
     id="path10181" />
  <path
     style="fill:#ffffff;fill-rule:evenodd;fill-opacity:1;stroke:none;"
     d="  M 900.01454,250.36826   L 904.61175,249.08904   L 935.19322,362.98001   L 930.55603,364.25924   z "
     id="path10183" />
  <path
     style="fill:#262626;fill-rule:evenodd;fill-opacity:1;stroke:none;"
     d="  M 893.1387,350.42762   C 892.45912,347.94912 893.93822,345.43065 896.37674,344.79104   L 955.0212,329.04058   C 957.4997,328.36099 960.01817,329.8401 960.69776,332.27862   L 965.45488,350.10781   C 966.13446,352.54634 964.65536,355.10478 962.21684,355.7444   L 903.5324,371.49485   C 901.09388,372.13446 898.57541,370.69534 897.89582,368.21684   z "
     id="path10185" />
  <path
     style="fill:#0d0d0d;fill-rule:evenodd;fill-opacity:1;stroke:none;"
     d="  M 891.97941,344.95094   C 891.8195,344.23137 892.21926,343.47184 892.93882,343.31193   L 956.94004,326.12235   C 957.6596,325.92247 958.41914,326.3622 958.57904,327.08177   L 959.9782,332.27862   C 960.17807,332.99818 959.77832,333.71775 959.05875,333.91763   L 895.05754,351.10721   C 894.33798,351.30709 893.57844,350.86735 893.37856,350.14779   z "
     id="path10187" />
  <path
     style="fill:#bf9000;fill-rule:evenodd;fill-opacity:1;stroke:none;"
     d="  M 918.12356,337.95518   C 917.92368,337.23561 918.32344,336.47608 919.043,336.2762   L 930.83586,333.11811   C 931.55542,332.91823 932.31496,333.35796 932.47486,334.07753   L 933.87402,339.27438   C 934.07389,339.99394 933.63416,340.75348 932.9146,340.95336   L 921.16172,344.11145   C 920.44216,344.31133 919.68262,343.87159 919.52271,343.15203   z "
     id="path10189" />
  <path
     style="fill:none;stroke:#ffd966;stroke-width:1.3192005px;stroke-linecap:butt;stroke-linejoin:miter;stroke-miterlimit:8;stroke-dasharray:none;stroke-opacity:1;"
     d="  M 918.12356,337.95518   C 917.92368,337.23561 918.32344,336.47608 919.043,336.2762   L 930.83586,333.11811   C 931.55542,332.91823 932.31496,333.35796 932.47486,334.07753   L 933.87402,339.27438   C 934.07389,339.99394 933.63416,340.75348 932.9146,340.95336   L 921.16172,344.11145   C 920.44216,344.31133 919.68262,343.87159 919.52271,343.15203   z "
     id="path10191" />
  <path
     style="fill:#262626;fill-rule:evenodd;fill-opacity:1;stroke:none;"
     d="  M 920.52211,230.86008   L 921.32162,230.66021   C 927.55784,228.98122 933.95397,232.65899 935.63295,238.89522   L 963.65597,343.31193   L 963.73592,345.07087   L 963.73592,345.07087   L 969.33253,357.66323   C 965.09509,359.5421 960.89764,361.38098 956.66021,363.25984   C 954.94125,364.01938 953.02241,364.01938 951.3834,363.37977   L 949.94428,362.46033   L 949.78437,362.54028   L 945.26711,360.54149   L 945.18716,360.30164   L 944.70745,360.46154   L 945.06723,360.18171   L 945.06723,360.06178   L 944.6275,358.90248   L 945.46699,356.98365   L 945.50697,356.74379   L 916.92429,250.20836   L 918.04361,247.64991   C 920.44216,243.69231 921.40157,239.29497 921.16172,234.97759   z  M 876.3089,242.73289   L 877.22835,242.49303   L 878.22774,245.29134   C 880.06663,249.20896 883.10478,252.68686 887.10236,255.0854   L 890.82011,258.00363   L 919.20291,363.77953   L 919.48274,364.13931   L 921.00182,365.25863   L 921.16172,366.33798   L 921.32162,366.53786   L 921.76136,366.61781   L 921.24167,366.73773   L 921.28165,366.97759   L 918.32344,370.97517   L 917.60388,371.09509   L 916.76439,372.69412   C 915.64506,374.0533 914.00606,375.01272 912.1272,375.2126   C 907.52998,375.69231 902.93277,376.21199 898.37553,376.6917   L 896.89643,363.05996   L 896.05694,361.42096   L 868.03392,257.00424   C 866.39491,250.808 870.07268,244.41187 876.3089,242.73289   z "
     id="path10193" />
  <path
     style="fill:#8497b0;fill-rule:evenodd;fill-opacity:1;stroke:none;"
     d="  M 898.85524,252.80678   L 906.61054,250.72804   C 907.68988,250.44821 908.76923,251.08783 909.04906,252.16717   L 923.56027,306.09449   C 923.68019,306.65415 923.60024,307.17383 923.36039,307.61357   L 923.16051,307.77347   L 923.08056,308.41308   L 920.12235,313.56996   C 919.72259,314.24955 918.80315,314.4894 918.08359,314.08964   L 912.96669,311.13144   C 912.6069,310.93156 912.36705,310.61175 912.24712,310.25197   L 912.32707,309.73228   L 911.92732,309.2126   L 897.45609,255.28528   C 897.17626,254.20594 897.81587,253.08661 898.85524,252.80678   z "
     id="path10195" />
  <path
     style="fill:#8497b0;fill-rule:evenodd;fill-opacity:1;stroke:none;"
     d="  M 905.73107,246.97032   L 909.48879,249.16899   C 910.44821,249.72865 910.76802,250.92792 910.20836,251.88734   L 906.21078,258.84313   C 905.6911,259.80254 904.45185,260.12235 903.49243,259.56269   L 896.53664,255.56511   C 895.57723,255.00545 895.25742,253.80618 895.81708,252.84676   L 897.97577,249.04906   L 901.17383,250.88795   C 902.13325,251.44761 903.33253,251.1278 903.89219,250.16838   z "
     id="path10197" />
  <path
     style="fill:#d9d9d9;fill-rule:evenodd;fill-opacity:1;stroke:none;"
     d="  M 883.94428,238.21563   L 902.0533,248.68928   L 912.40703,230.70018   L 916.48455,233.05875   L 903.65233,255.32526   L 881.46578,242.53301   z "
     id="path10199" />
  <path
     style="fill:#fbe5d6;fill-rule:evenodd;fill-opacity:1;stroke:none;"
     d="  M 920.2023,267.59782   C 921.28165,269.15687 920.88189,271.31557 919.28286,272.39491   L 861.31799,311.57117   C 859.75893,312.65051 857.56027,312.25076 856.5209,310.65173   L 848.72562,299.1387   C 847.64627,297.53967 848.04603,295.38098 849.64506,294.34161   L 907.60993,255.12538   C 909.20896,254.04603 911.36766,254.48577 912.447,256.0848   z "
     id="path10201" />
  <path
     style="fill:#262626;fill-rule:evenodd;fill-opacity:1;stroke:none;"
     d="  M 920.2023,267.59782   C 921.28165,269.15687 920.88189,271.31557 919.28286,272.39491   L 869.75288,305.89461   C 868.15385,306.97396 865.99515,306.53422 864.91581,304.97517   L 857.16051,293.46214   C 856.08116,291.86311 856.48092,289.70442 858.07995,288.62508   L 907.60993,255.12538   C 909.20896,254.04603 911.36766,254.48577 912.447,256.0848   z "
     id="path10203" />
  <path
     style="fill:#bfbfbf;fill-rule:evenodd;fill-opacity:1;stroke:none;"
     d="  M 362.66021,345.23077   C 362.66021,336.39612 369.81587,329.24046 378.61054,329.24046   L 758.70018,329.24046   C 767.53483,329.24046 774.69049,336.39612 774.69049,345.23077   L 774.69049,409.11205   C 774.69049,417.9467 767.53483,425.06239 758.70018,425.06239   L 378.61054,425.06239   C 369.81587,425.06239 362.66021,417.9467 362.66021,409.11205   z "
     id="path10205" />
  <path
     style="fill:#000000;fill-rule:evenodd;fill-opacity:1;stroke:none;"
     d="  M 380.76923,358.90248   C 380.76923,354.10539 384.64688,350.18776 389.48395,350.18776   L 747.38704,350.18776   C 752.22411,350.18776 756.10176,354.10539 756.10176,358.90248   L 756.10176,393.76136   C 756.10176,398.59843 752.22411,402.51605 747.38704,402.51605   L 389.48395,402.51605   C 384.64688,402.51605 380.76923,398.59843 380.76923,393.76136   z "
     id="path10207" />
  <path
     style="fill:none;stroke:#f2f2f2;stroke-width:1.3192005px;stroke-linecap:butt;stroke-linejoin:miter;stroke-miterlimit:8;stroke-dasharray:none;stroke-opacity:1;"
     d="  M 380.76923,358.90248   C 380.76923,354.10539 384.64688,350.18776 389.48395,350.18776   L 747.38704,350.18776   C 752.22411,350.18776 756.10176,354.10539 756.10176,358.90248   L 756.10176,393.76136   C 756.10176,398.59843 752.22411,402.51605 747.38704,402.51605   L 389.48395,402.51605   C 384.64688,402.51605 380.76923,398.59843 380.76923,393.76136   z "
     id="path10209" />
  <path
     style="fill:#d9d9d9;fill-rule:evenodd;fill-opacity:1;stroke:none;"
     d="  M 797.07692,325.52271   C 797.07692,322.92429 799.15566,320.84555 801.75409,320.84555   L 820.50273,320.84555   C 823.10115,320.84555 825.21987,322.92429 825.21987,325.52271   L 825.21987,466.1175   C 825.21987,468.71593 823.10115,470.83465 820.50273,470.83465   L 801.75409,470.83465   C 799.15566,470.83465 797.07692,468.71593 797.07692,466.1175   z "
     id="path10211" />
  <path
     style="fill:#bfbfbf;fill-rule:evenodd;fill-opacity:1;stroke:none;"
     d="  M 787.16293,299.09873   C 788.28225,297.13992 790.76075,296.5003 792.71956,297.61962   L 853.80254,332.87826   C 855.72138,333.99758 856.40097,336.47608 855.28165,338.43489   L 847.08661,352.62629   C 845.96729,354.5851 843.48879,355.22471 841.52998,354.10539   L 780.447,318.84676   C 778.52816,317.72744 777.84858,315.20896 778.9679,313.29013   z "
     id="path10213" />
  <path
     style="fill:#ff5050;fill-rule:evenodd;fill-opacity:1;stroke:none;"
     d="  M 811.06844,289.58449   C 811.94791,288.02544 813.9467,287.50575 815.50575,288.38522   L 851.5639,309.2126   C 853.12296,310.09207 853.68262,312.09085 852.76317,313.64991   L 846.24712,324.96305   C 845.32768,326.52211 843.32889,327.08177 841.76984,326.16233   L 805.71169,305.37492   C 804.15263,304.45548 803.63295,302.45669 804.51242,300.89764   z "
     id="path10215" />
  <path
     style="fill:#f2f2f2;fill-rule:evenodd;fill-opacity:1;stroke:none;"
     d="  M 799.07571,296.90006   C 799.27559,296.5003 799.7553,296.38038 800.15506,296.58025   L 851.52392,326.24228   C 851.92368,326.48213 852.04361,326.96184 851.80376,327.3616   L 850.20472,330.11993   C 850.00485,330.51969 849.52514,330.63961 849.12538,330.39976   L 797.75651,300.73773   C 797.35675,300.53786 797.23683,300.05815 797.47668,299.65839   z "
     id="path10217" />
  <path
     style="fill:#404040;fill-rule:evenodd;fill-opacity:1;stroke:none;"
     d="  M 362.64022,363.71956   L 362.64022,373.5536   L 357.74319,375.19261   C 348.149,379.50999 341.41308,389.62386 341.41308,401.43671   C 341.41308,411.25076 346.09025,419.9255 353.20594,425.0424   L 356.7238,427.08116   L 356.7238,437.69473   L 353.56572,436.65536   C 340.69352,430.83889 331.65899,417.26711 331.65899,401.43671   C 331.65899,382.94791 343.95154,367.53725 360.30164,363.97941   z "
     id="path10219" />
  <path
     style="fill:#404040;fill-rule:evenodd;fill-opacity:1;stroke:none;"
     d="  M 362.98001,379.78982   L 362.98001,389.62386   L 358.08298,391.24288   C 348.48879,395.56027 341.75288,405.69412 341.75288,417.48698   C 341.75288,427.32102 346.43004,435.99576 353.54573,441.11266   L 357.0636,443.15142   L 357.0636,453.76499   L 353.88552,452.70563   C 341.01333,446.90915 331.9788,433.31738 331.9788,417.48698   C 331.9788,399.01817 344.27135,383.60751 360.62144,380.02968   z "
     id="path10221" />
  <text
     xml:space="preserve"
     style="font-size:63.937500px;font-style:normal;font-variant:normal;font-weight:400;font-stretch:Normal;line-height:125.000000%;letter-spacing:0px;word-spacing:0px;fill:#000000;fill-opacity:1;stroke:none;font-family:Corbel;text-align:start;text-anchor:start;"
     transform="matrix(1.000000,-0.000000,0.000000,1.000000,406.716357,324.312100)"
     x="0.000000"
     y="0.000000"
     id="text10227"><tspan
       sodipodi:role="line"
       x="0.000000"
       y="0.000000"
       id="tspan10225"><tspan
         dx="0.000000"
         dy="0.000000"
         style="fill:#FFD966;font-size:63.937500px;font-style:normal;font-variant:normal;font-weight:400;font-stretch:Normal;font-family:Corbel;"
         id="tspan10223">J</tspan></tspan></text>
  <text
     xml:space="preserve"
     style="font-size:63.937500px;font-style:normal;font-variant:normal;font-weight:400;font-stretch:Normal;line-height:125.000000%;letter-spacing:0px;word-spacing:0px;fill:#000000;fill-opacity:1;stroke:none;font-family:Corbel;text-align:start;text-anchor:start;"
     transform="matrix(1.000000,-0.000000,0.000000,1.000000,430.701820,324.312100)"
     x="0.000000"
     y="0.000000"
     id="text10233"><tspan
       sodipodi:role="line"
       x="0.000000"
       y="0.000000"
       id="tspan10231"><tspan
         dx="0.000000"
         dy="0.000000"
         style="fill:#F2F2F2;font-size:63.937500px;font-style:normal;font-variant:normal;font-weight:400;font-stretch:Normal;font-family:Corbel;"
         id="tspan10229">ustin Chong</tspan></tspan></text>
</svg>
